<svg width="1138" height="577" viewBox="0 0 1138 577" fill="none" xmlns="http://www.w3.org/2000/svg">
<path d="M345.4 60.4C339.267 44.9333 330.6 33.0667 319.4 24.8C308.2 16.2667 290.733 12 267 12C253.933 12 242.733 13.7333 233.4 17.2C224.067 20.4 215.667 26 208.2 34C200.733 42 195.133 53.6 191.4 68.8C187.667 83.7333 185.8 102.267 185.8 124.4V163.6C185.8 185.733 187.667 204.4 191.4 219.6C195.133 234.533 200.733 246 208.2 254C215.667 262 224.067 267.733 233.4 271.2C242.733 274.4 253.933 276 267 276C291 276 310.067 270.933 324.2 260.8C338.333 250.4 345.4 239.333 345.4 227.6V160H296.2V148H359.8V223.6C359.8 241.467 351.667 256.667 335.4 269.2C319.4 281.733 296.6 288 267 288C234.2 288 210.467 278 195.8 258C181.133 237.733 173.8 206.267 173.8 163.6V124.4C173.8 81.7333 181.133 50.4 195.8 30.4C210.467 10.1333 234.2 -1.52588e-05 267 -1.52588e-05C293.4 -1.52588e-05 313.133 4.93332 326.2 14.8C339.267 24.4 349.4 38.1333 356.6 56L345.4 60.4ZM479.894 64.4C470.827 61.4667 459.627 60 446.294 60C432.96 60 421.76 61.4667 412.694 64.4C403.627 67.0667 395.227 72.2667 387.494 80C380.027 87.4667 374.427 98.5333 370.694 113.2C366.96 127.6 365.094 145.867 365.094 168C365.094 190.133 366.96 208.533 370.694 223.2C374.427 237.6 380.027 248.667 387.494 256.4C395.227 263.867 403.627 269.067 412.694 272C421.76 274.667 432.96 276 446.294 276C459.627 276 470.827 274.667 479.894 272C488.96 269.067 497.227 263.867 504.694 256.4C512.427 248.667 518.16 237.6 521.894 223.2C525.627 208.533 527.494 190.133 527.494 168C527.494 145.867 525.627 127.6 521.894 113.2C518.16 98.5333 512.427 87.4667 504.694 80C497.227 72.2667 488.96 67.0667 479.894 64.4ZM517.894 259.6C503.494 278.533 479.627 288 446.294 288C412.96 288 389.094 278.533 374.694 259.6C360.294 240.667 353.094 210.133 353.094 168C353.094 125.867 360.294 95.3333 374.694 76.4C389.094 57.4667 412.96 48 446.294 48C479.627 48 503.494 57.4667 517.894 76.4C532.294 95.3333 539.494 125.867 539.494 168C539.494 210.133 532.294 240.667 517.894 259.6ZM639.272 167.6L693.672 284H680.472L624.472 164C625.005 163.733 627.272 162.667 631.272 160.8C635.539 158.667 638.472 157.2 640.072 156.4C641.672 155.333 644.339 153.6 648.072 151.2C651.805 148.8 654.605 146.533 656.472 144.4C658.339 142 660.339 139.333 662.472 136.4C664.872 133.2 666.605 129.733 667.672 126C668.739 122 669.272 117.733 669.272 113.2C669.272 96.4 661.272 84 645.272 76C629.272 68 609.405 64 585.672 64H553.672V284H541.672V52H585.672C617.139 52 640.872 57.4667 656.872 68.4C673.139 79.3333 681.272 94.2667 681.272 113.2C681.272 125.467 677.139 136.4 668.872 146C660.605 155.333 650.739 162.533 639.272 167.6ZM683.922 52H695.922V284H683.922V52ZM841.413 272V284H707.813V52H719.812V272H841.413ZM957.1 272V284H823.5V52H835.5V272H957.1ZM960.388 272H1090.79L1008.79 78.8L921.588 284H908.788L1008.79 48L1108.79 284H960.388V272Z" fill="white"/>
<path d="M565.4 349.4C559.267 333.933 550.6 322.067 539.4 313.8C528.2 305.267 510.733 301 487 301C473.933 301 462.733 302.733 453.4 306.2C444.067 309.4 435.667 315 428.2 323C420.733 331 415.133 342.6 411.4 357.8C407.667 372.733 405.8 391.267 405.8 413.4V452.6C405.8 474.733 407.667 493.4 411.4 508.6C415.133 523.533 420.733 535 428.2 543C435.667 551 444.067 556.733 453.4 560.2C462.733 563.4 473.933 565 487 565C511 565 530.067 559.933 544.2 549.8C558.333 539.4 565.4 528.333 565.4 516.6V449H516.2V437H579.8V512.6C579.8 530.467 571.667 545.667 555.4 558.2C539.4 570.733 516.6 577 487 577C454.2 577 430.467 567 415.8 547C401.133 526.733 393.8 495.267 393.8 452.6V413.4C393.8 370.733 401.133 339.4 415.8 319.4C430.467 299.133 454.2 289 487 289C513.4 289 533.133 293.933 546.2 303.8C559.267 313.4 569.4 327.133 576.6 345L565.4 349.4ZM708.694 456.6L763.094 573H749.894L693.894 453C694.427 452.733 696.694 451.667 700.694 449.8C704.96 447.667 707.894 446.2 709.494 445.4C711.094 444.333 713.76 442.6 717.494 440.2C721.227 437.8 724.027 435.533 725.894 433.4C727.76 431 729.76 428.333 731.894 425.4C734.294 422.2 736.027 418.733 737.094 415C738.16 411 738.694 406.733 738.694 402.2C738.694 385.4 730.694 373 714.694 365C698.694 357 678.827 353 655.094 353H623.094V573H611.094V341H655.094C686.56 341 710.294 346.467 726.294 357.4C742.56 368.333 750.694 383.267 750.694 402.2C750.694 414.467 746.56 425.4 738.294 435C730.027 444.333 720.16 451.533 708.694 456.6ZM802.544 561H932.944L850.944 367.8L763.744 573H750.944L850.944 337L950.944 573H802.544V561ZM1018.18 573H960.578V341H1004.58C1036.04 341 1059.78 346.467 1075.78 357.4C1092.04 368.333 1100.18 383.267 1100.18 402.2C1100.18 424.867 1090.18 441.267 1070.18 451.4C1084.84 456.467 1095.78 464.067 1102.98 474.2C1110.18 484.067 1113.78 495.533 1113.78 508.6C1113.78 527.8 1105.78 543.4 1089.78 555.4C1074.04 567.133 1050.18 573 1018.18 573ZM1018.18 561C1041.64 561 1061.38 556.733 1077.38 548.2C1093.64 539.667 1101.78 526.467 1101.78 508.6C1101.78 500.333 1098.71 491.4 1092.58 481.8C1086.44 471.933 1076.98 464.733 1064.18 460.2L1043.38 453L1062.58 443C1069.24 439.533 1075.11 434.333 1080.18 427.4C1085.51 420.2 1088.18 411.8 1088.18 402.2C1088.18 385.4 1080.18 373 1064.18 365C1048.18 357 1028.31 353 1004.58 353H972.578V561H1018.18Z" fill="white"/>
</svg>
