<svg width="559" height="543" viewBox="0 0 559 543" fill="none" xmlns="http://www.w3.org/2000/svg">
<path d="M478.026 64.661C471.571 48.3823 462.449 35.8927 450.661 27.192C438.873 18.2107 420.489 13.72 395.51 13.72C381.757 13.72 369.969 15.5443 360.146 19.193C350.323 22.561 341.482 28.455 333.623 36.875C325.764 45.295 319.87 57.504 315.941 73.502C312.012 89.2193 310.047 108.726 310.047 132.021V173.279C310.047 196.574 312.012 216.221 315.941 232.219C319.87 247.936 325.764 260.005 333.623 268.425C341.482 276.845 350.323 282.879 360.146 286.528C369.969 289.896 381.757 291.58 395.51 291.58C420.77 291.58 440.838 286.247 455.713 275.582C470.588 264.636 478.026 252.988 478.026 240.639V169.49H426.243V156.86H493.182V236.429C493.182 255.234 484.622 271.232 467.501 284.423C450.661 297.614 426.664 304.21 395.51 304.21C360.988 304.21 336.009 293.685 320.572 272.635C305.135 251.304 297.417 218.186 297.417 173.279V132.021C297.417 87.1143 305.135 54.136 320.572 33.086C336.009 11.7553 360.988 1.08998 395.51 1.08998C423.296 1.08998 444.065 6.28232 457.818 16.667C471.571 26.771 482.236 41.2253 489.814 60.03L478.026 64.661Z" fill="white"/>
<path d="M512.026 63.661C505.571 47.3823 496.449 34.8927 484.661 26.192C472.873 17.2107 454.489 12.72 429.51 12.72C415.757 12.72 403.969 14.5443 394.146 18.193C384.323 21.561 375.482 27.455 367.623 35.875C359.764 44.295 353.87 56.504 349.941 72.502C346.012 88.2193 344.047 107.726 344.047 131.021V172.279C344.047 195.574 346.012 215.221 349.941 231.219C353.87 246.936 359.764 259.005 367.623 267.425C375.482 275.845 384.323 281.879 394.146 285.528C403.969 288.896 415.757 290.58 429.51 290.58C454.77 290.58 474.838 285.247 489.713 274.582C504.588 263.636 512.026 251.988 512.026 239.639V168.49H460.243V155.86H527.182V235.429C527.182 254.234 518.622 270.232 501.501 283.423C484.661 296.614 460.664 303.21 429.51 303.21C394.988 303.21 370.009 292.685 354.572 271.635C339.135 250.304 331.417 217.186 331.417 172.279V131.021C331.417 86.1143 339.135 53.136 354.572 32.086C370.009 10.7553 394.988 0.0899839 429.51 0.0899839C457.296 0.0899839 478.065 5.28232 491.818 15.667C505.571 25.771 516.236 40.2253 523.814 59.03L512.026 63.661Z" fill="#EE5F8A" fill-opacity="0.772549"/>
<path fill-rule="evenodd" clip-rule="evenodd" d="M236.552 181.6C247.5 178.655 258.084 181.145 268.041 187.406C278.348 193.888 288.023 204.429 296.861 217.266C314.406 242.751 328.82 277.529 338.392 308.426H338.424H338.474H338.476H338.484H338.524H338.558H338.574H338.613H338.624H338.639H338.673H338.718H338.723H338.744H338.771H338.795H338.82H338.868H338.87H338.877H338.915H338.943H338.963H339.01H339.013H339.015H339.056H339.085H339.102H339.148H339.15H339.154H339.193H339.22H339.238H339.282H339.285H339.289H339.326H339.349H339.37H339.41H339.412H339.431H339.455H339.471H339.497H339.529H339.538H339.575H339.579H339.586H339.619H339.641H339.659H339.695H339.698H339.721H339.737H339.747H339.774H339.798H339.812H339.847H339.849H339.869H339.885H339.894H339.92H339.94H339.955H339.985H339.989H340.019H340.022H340.027H340.055H340.069H340.087H340.109H340.119H340.147H340.149H340.172H340.179H340.184H340.208H340.22H340.237H340.254H340.264H340.287H340.291H340.317H340.318H340.326H340.342H340.348H340.367H340.377H340.39H340.404H340.413H340.43H340.435H340.454H340.456H340.476H340.477H340.483H340.495H340.499H340.514H340.519H340.531H340.539H340.548H340.556H340.563H340.573H340.578H340.588H340.591H340.602H340.604H340.615H340.616H340.627H340.636H340.637H340.642H340.645H340.646H340.653H340.654H340.659H340.661H340.665H340.666H340.67H340.671H340.673H340.674H340.675H340.676H340.677H340.677H340.804H340.967H341.133H341.301H341.471H341.644H341.819H341.996H342.176H342.358H342.542H342.728H342.917H343.109H343.302H343.499H343.697H343.898H344.102H344.308H344.516H344.727H344.94H345.156H345.374H345.595H345.818H346.044H346.273H346.504H346.737H346.974H347.212H347.454H347.698H347.944H348.194H348.446H348.7H348.958H349.218H349.481H349.746H350.014H350.285H350.559H350.835H351.115H351.397H351.681H351.969H352.26H352.553H352.849H353.148H353.45H353.755H354.062H354.373H354.686H355.003H355.322H355.644H355.97H356.298H356.629H356.963H357.3H357.641H357.984H358.33H358.68H359.032H359.388H359.746H360.108H360.473H360.841H361.212H361.586H361.963H362.344H362.728H363.115H363.505H363.898H364.295H364.695H365.098H365.504H365.914H366.327H366.743H367.162H367.585H368.011H368.441H368.874H369.31H369.75H370.193H370.639H371.089H371.542H371.999H372.459H372.923H373.39H373.861H374.335H374.813H375.294H375.778H376.267H376.758H377.254H377.753H378.255H378.761H379.271H379.784H380.301H380.822H381.346H381.874H382.406H382.941H383.48H384.023H384.57H385.12H385.674H386.232H386.793H387.359H387.928H388.501H389.077H389.658H390.243H390.831H391.423H392.019H392.619H393.223H393.831H394.442H395.058H395.678H396.301H396.929H397.56H398.196H398.835H399.479H400.127H400.778H401.434C429.748 308.426 451.204 317.974 467.419 333.519C483.609 349.041 494.519 370.486 501.88 394.211C516.598 441.644 517.227 498.511 517.227 536.309C517.227 536.861 516.779 537.309 516.227 537.309H426.946C412.853 537.309 404.037 534.684 399.288 530.138C394.444 525.502 394.07 519.129 396.174 512.378C398.274 505.64 402.894 498.305 408.404 491.374C413.726 484.682 419.928 478.306 425.633 473.125C419.111 463.349 411.69 450.019 407.288 437.258C404.891 439.491 402.493 441.796 400.083 444.111C394.918 449.074 389.698 454.089 384.312 458.575C375.988 465.508 367.122 471.312 357.109 473.939C337.171 479.171 313.205 471.705 280.522 437.282C269.289 463.611 246.82 473.044 227.833 474.814C231.039 475.998 233.514 477.574 235.335 479.491C239.736 484.125 240.069 490.467 238.163 497.193C236.257 503.921 232.061 511.252 227.05 518.185C222.029 525.131 216.145 531.737 210.798 537.02C210.611 537.205 210.358 537.309 210.095 537.309C207.087 537.309 204.154 537.311 201.294 537.314C172.775 537.337 151.558 537.354 136.551 534.972C128.283 533.66 121.788 531.606 116.958 528.348C112.09 525.066 108.97 520.599 107.399 514.608C105.839 508.657 105.813 501.227 107.045 491.985C108.277 482.734 110.781 471.59 114.338 458.178C118.503 442.475 124.13 423.597 130.887 400.935C135.562 385.251 140.779 367.753 146.424 348.241H69.7797C31.1217 348.241 5 322.733 5 296.822C5 286.382 11.5603 273.543 21.2195 263.362C30.889 253.17 43.8893 245.404 57.0237 245.404C60.0021 245.404 61.6046 244.491 62.4565 243.142C63.3612 241.709 63.5972 239.523 63.2078 236.616C62.4311 230.817 59.3047 223.016 56.0959 215.031L56.0504 214.918C52.8957 207.066 49.6713 199.042 48.8574 192.965C48.4496 189.92 48.6121 187.145 49.8999 185.106C51.2404 182.983 53.6241 181.912 57.0237 181.912H81.492C81.3768 180.449 81.0398 178.498 80.559 176.127C80.2432 174.57 79.8767 172.882 79.4829 171.069C79.1276 169.432 78.7501 167.694 78.3676 165.856C76.7708 158.187 75.1577 149.116 75.1576 140.43C75.1576 131.758 76.7642 123.319 81.7524 117.036C86.7768 110.708 95.0796 106.753 108.047 106.753C138.911 106.753 170.987 119.371 195.33 135.098C207.508 142.965 217.789 151.635 225.039 159.941C231.781 167.665 236.029 175.22 236.552 181.6ZM234.587 182.186C222.172 186.252 209.511 197.32 196.843 217.329C183.919 237.744 170.913 267.582 158.116 309.132C154.077 322.242 150.373 334.598 147.003 346.241H69.7797C32.4171 346.241 7.67969 322.003 7.01379 297.822H57.0237C57.576 297.822 58.0237 297.375 58.0237 296.822C58.0237 296.27 57.576 295.822 57.0237 295.822H7.02133C7.42462 286.258 13.5174 274.386 22.6704 264.739C32.1348 254.763 44.6464 247.404 57.0237 247.404C60.4234 247.404 62.8072 246.333 64.1476 244.21C65.4354 242.17 65.598 239.395 65.1901 236.35C64.3762 230.274 61.1518 222.249 57.9971 214.398L57.9517 214.285C54.7428 206.299 51.6164 198.498 50.8397 192.7C50.4503 189.792 50.6863 187.606 51.591 186.174C52.443 184.824 54.0454 183.912 57.0237 183.912H82.5356H95.2916C95.8438 183.912 96.2916 183.464 96.2916 182.912C96.2916 182.359 95.8438 181.912 95.2916 181.912H83.4972C83.3807 180.263 83.009 178.146 82.5191 175.73C82.2052 174.182 81.8313 172.459 81.4323 170.62C81.0751 168.975 80.6979 167.237 80.3257 165.449C78.7334 157.801 77.1577 148.899 77.1576 140.43C77.1576 131.946 78.7401 124.047 83.3188 118.28C87.8613 112.559 95.5034 108.753 108.047 108.753C138.413 108.753 170.116 121.188 194.245 136.778C206.304 144.568 216.432 153.122 223.533 161.257C230.383 169.105 234.282 176.41 234.587 182.186ZM221.194 475.136C217.111 475.152 213.299 474.828 209.932 474.274C209.419 474.189 209.056 473.724 209.098 473.205C209.141 472.686 209.574 472.287 210.095 472.287C214.378 472.287 218.129 472.58 221.389 473.14C241.223 473.017 267.395 464.633 279.261 435.1C283.238 425.203 285.631 412.892 285.631 397.659C285.631 397.107 286.078 396.659 286.631 396.659C287.183 396.659 287.631 397.107 287.631 397.659C287.631 412.8 285.299 425.182 281.353 435.251C314.179 470.051 337.609 476.988 356.601 472.005C366.203 469.485 374.804 463.892 383.032 457.039C388.37 452.592 393.491 447.671 398.617 442.745C401.264 440.201 403.913 437.655 406.595 435.173C403.473 425.419 402.196 415.934 404.831 408.778C406.189 405.088 408.585 402.03 412.251 399.911C415.898 397.803 420.739 396.659 426.946 396.659C427.498 396.659 427.946 397.107 427.946 397.659C427.946 398.212 427.498 398.659 426.946 398.659C420.969 398.659 416.505 399.762 413.252 401.643C410.017 403.512 407.916 406.187 406.707 409.469C404.263 416.109 405.458 425.284 408.693 435.162C413.043 448.443 420.951 462.613 427.775 472.728C428.054 473.141 427.985 473.697 427.614 474.031C421.801 479.253 415.41 485.778 409.97 492.619C404.518 499.475 400.076 506.582 398.084 512.973C396.095 519.352 396.599 524.796 400.67 528.694C404.837 532.682 412.975 535.309 426.946 535.309H515.227C515.215 497.487 514.457 441.492 499.97 394.803C492.665 371.261 481.892 350.166 466.035 334.963C450.202 319.785 429.246 310.426 401.434 310.426H400.778H400.127H399.479H398.835H398.196H397.56H396.929H396.301H395.678H395.058H394.442H393.831H393.223H392.619H392.019H391.423H390.831H390.243H389.658H389.077H388.501H387.928H387.359H386.793H386.232H385.674H385.12H384.57H384.023H383.48H382.941H382.406H381.874H381.346H380.822H380.301H379.784H379.271H378.761H378.255H377.753H377.254H376.758H376.267H375.778H375.294H374.813H374.335H373.861H373.39H372.923H372.459H371.999H371.542H371.089H370.639H370.193H369.75H369.31H368.874H368.441H368.011H367.585H367.162H366.743H366.327H365.914H365.504H365.098H364.695H364.295H363.898H363.505H363.115H362.728H362.344H361.963H361.586H361.212H360.841H360.473H360.108H359.746H359.388H359.032H358.68H358.33H357.984H357.641H357.3H356.963H356.629H356.298H355.97H355.644H355.322H355.003H354.686H354.373H354.062H353.755H353.45H353.148H352.849H352.553H352.26H351.969H351.681H351.397H351.115H350.835H350.559H350.285H350.014H349.746H349.481H349.218H348.958H348.7H348.446H348.194H347.944H347.698H347.454H347.212H346.974H346.737H346.504H346.273H346.044H345.818H345.595H345.374H345.156H344.94H344.727H344.516H344.308H344.102H343.898H343.697H343.499H343.302H343.109H342.917H342.728H342.542H342.358H342.176H341.996H341.819H341.644H341.471H341.301H341.133H340.967H340.804H340.677H340.677H340.676H340.675H340.674H340.673H340.671H340.67H340.666H340.665H340.661H340.659H340.654H340.653H340.646H340.645H340.642H340.637H340.636H340.627H340.616H340.615H340.604H340.602H340.591H340.588H340.578H340.573H340.563H340.556H340.548H340.539H340.531H340.519H340.514H340.499H340.495H340.483H340.477H340.476H340.456H340.454H340.435H340.43H340.413H340.404H340.39H340.377H340.367H340.348H340.342H340.326H340.318H340.317H340.291H340.287H340.264H340.254H340.237H340.22H340.208H340.184H340.179H340.172H340.149H340.147H340.119H340.109H340.087H340.069H340.055H340.027H340.022H340.019H339.989H339.985H339.955H339.94H339.92H339.894H339.885H339.869H339.849H339.847H339.812H339.798H339.774H339.747H339.737H339.721H339.698H339.695H339.659H339.641H339.619H339.586H339.579H339.575H339.538H339.529H339.497H339.471H339.455H339.431H339.412H339.41H339.37H339.349H339.326H339.289H339.285H339.282H339.238H339.22H339.193H339.154H339.15H339.148H339.102H339.085H339.056H339.015H339.013H339.01H338.963H338.943H338.915H338.877H338.87H338.868H338.82H338.795H338.771H338.744H338.723H338.718H338.673H338.639H338.624H338.613H338.574H338.558H338.524H338.484H338.476H338.474H338.424H338.392H338.373H338.357H338.322H338.306H338.271H338.232H338.219H338.219H338.167H338.129H338.115H338.109H338.063H338.038H338.011H337.988H337.959H337.945H337.906H337.869H337.853H337.85H337.8H337.753H337.752H337.747H337.694H337.654H337.641H337.637H337.588H337.534H337.524H337.481H337.428H337.413H337.374H337.32H337.304H337.267H337.213H337.197H337.16H337.106H337.092H337.053H336.999H336.989H336.946H336.893H336.887H336.839H336.788H336.786H336.733H336.69H336.68H336.627H336.594H336.575H336.522H336.501H336.47H336.417H336.409H336.365H336.318H336.314H336.262H336.23H336.211H336.159H336.144H336.108H336.059H336.058H336.007H335.976H335.957H335.907H335.895H335.858H335.815H335.809H335.76H335.738H335.711H335.663H335.662H335.615H335.587H335.567H335.52H335.515H335.473H335.444H335.427H335.381H335.375H335.336H335.308H335.291H335.246H335.242H335.202H335.178H335.158H335.116H335.115H335.072H335.055H335.03H334.996H334.988H334.947H334.938H334.907H334.882H334.867H334.828H334.827H334.788H334.775H334.75H334.724H334.712H334.675H334.674H334.639H334.626H334.603H334.58H334.568H334.535H334.533H334.499H334.491H334.466H334.449H334.434H334.408H334.402H334.371H334.369H334.34H334.332H334.311H334.296H334.282H334.261H334.254H334.228H334.227H334.2H334.196H334.174H334.165H334.15H334.136H334.125H334.108H334.102H334.082H334.08H334.058H334.057H334.038H334.033H334.018H334.011H333.999H333.99H333.981H333.971H333.964H333.952H333.948H333.935H333.933H333.919H333.918H333.905H333.905H333.893H333.891H333.881H333.879H333.871H333.869H333.862H333.859H333.853H333.851H333.846H333.843H333.84H333.837H333.835H333.833H333.831H333.829H333.827H333.826H333.826H333.825H333.825C333.825 310.079 333.825 309.731 333.825 309.426C333.825 309.121 333.825 308.773 333.825 308.426H333.825H333.826H333.826H333.827H333.829H333.831H333.833H333.835H333.837H333.84H333.843H333.846H333.851H333.853H333.859H333.862H333.869H333.871H333.879H333.881H333.891H333.893H333.905H333.905H333.918H333.919H333.933H333.935H333.948H333.952H333.964H333.971H333.981H333.99H333.999H334.011H334.018H334.033H334.038H334.057H334.058H334.08H334.082H334.102H334.108H334.125H334.136H334.15H334.165H334.174H334.196H334.2H334.227H334.228H334.254H334.261H334.282H334.296H334.311H334.332H334.34H334.369H334.371H334.402H334.408H334.434H334.449H334.466H334.491H334.499H334.533H334.535H334.568H334.58H334.603H334.626H334.639H334.674H334.675H334.712H334.724H334.75H334.775H334.788H334.827H334.828H334.867H334.882H334.907H334.938H334.947H334.988H334.996H335.03H335.055H335.072H335.115H335.116H335.158H335.178H335.202H335.242H335.246H335.291H335.308H335.336H335.375H335.381H335.427H335.444H335.473H335.515H335.52H335.567H335.587H335.615H335.662H335.663H335.711H335.738H335.76H335.809H335.815H335.858H335.895H335.907H335.957H335.976H336.007H336.058H336.059H336.108H336.144H336.159H336.211H336.23H336.262H336.298C326.757 277.777 312.488 243.492 295.213 218.401C286.452 205.676 276.961 195.378 266.976 189.099C257.017 182.837 246.609 180.593 235.899 183.868C223.91 187.534 211.335 198.179 198.533 218.399C185.741 238.604 172.798 268.257 160.027 309.72C155.908 323.094 152.137 335.678 148.715 347.518C142.913 367.595 137.566 385.529 132.789 401.556C126.042 424.185 120.43 443.01 116.271 458.691C112.721 472.077 110.243 483.124 109.027 492.249C107.81 501.383 107.869 508.515 109.334 514.101C110.788 519.646 113.632 523.693 118.076 526.69C122.557 529.712 128.72 531.704 136.864 532.997C151.705 535.352 172.752 535.336 201.361 535.313C204.067 535.311 206.841 535.309 209.683 535.309C214.888 530.138 220.575 523.729 225.429 517.014C230.383 510.16 234.425 503.049 236.239 496.648C238.054 490.244 237.589 484.769 233.885 480.869C231.395 478.247 227.332 476.212 221.194 475.136Z" fill="#FEFEFE"/>
<path d="M236.552 181.6L237.851 186.428L232.059 187.986L231.569 182.008L236.552 181.6ZM268.041 187.406L265.379 191.639L265.379 191.639L268.041 187.406ZM296.861 217.266L300.979 214.431L300.979 214.431L296.861 217.266ZM338.392 308.426V313.426H334.707L333.616 309.906L338.392 308.426ZM467.419 333.519L470.879 329.91L470.879 329.91L467.419 333.519ZM501.88 394.211L506.656 392.729L506.656 392.729L501.88 394.211ZM399.288 530.138L402.745 526.526L402.745 526.526L399.288 530.138ZM396.174 512.378L400.948 513.866L400.948 513.866L396.174 512.378ZM408.404 491.374L412.318 494.486L412.318 494.486L408.404 491.374ZM425.633 473.125L429.792 470.35L432.182 473.932L428.994 476.827L425.633 473.125ZM407.288 437.258L403.88 433.6L409.507 428.357L412.015 435.627L407.288 437.258ZM400.083 444.111L403.547 447.717L403.547 447.717L400.083 444.111ZM384.312 458.575L387.512 462.417L387.512 462.417L384.312 458.575ZM357.109 473.939L358.378 478.775L358.378 478.775L357.109 473.939ZM280.522 437.282L275.923 435.32L278.909 428.322L284.148 433.84L280.522 437.282ZM227.833 474.814L226.101 479.504L227.369 469.836L227.833 474.814ZM235.335 479.491L238.961 476.048L238.961 476.048L235.335 479.491ZM238.163 497.193L242.974 498.556L242.974 498.556L238.163 497.193ZM227.05 518.185L231.102 521.114L231.102 521.114L227.05 518.185ZM210.798 537.02L207.283 533.464L207.283 533.464L210.798 537.02ZM201.294 537.314L201.29 532.314L201.29 532.314L201.294 537.314ZM136.551 534.972L137.334 530.034L137.334 530.034L136.551 534.972ZM116.958 528.348L114.162 532.494L114.162 532.494L116.958 528.348ZM107.399 514.608L102.563 515.876L102.563 515.876L107.399 514.608ZM107.045 491.985L112.001 492.645L112.001 492.645L107.045 491.985ZM114.338 458.178L109.505 456.896L109.505 456.896L114.338 458.178ZM130.887 400.935L126.095 399.507L126.095 399.507L130.887 400.935ZM146.424 348.241V343.241H153.076L151.227 349.63L146.424 348.241ZM21.2195 263.362L24.8467 266.803L24.8467 266.803L21.2195 263.362ZM62.4565 243.142L58.2287 240.472L58.2288 240.472L62.4565 243.142ZM63.2078 236.616L68.1636 235.952L68.1636 235.952L63.2078 236.616ZM56.0959 215.031L60.7349 213.165L60.7353 213.166L56.0959 215.031ZM56.0504 214.918L51.4114 216.783L51.411 216.782L56.0504 214.918ZM48.8574 192.965L43.9016 193.629L43.9016 193.629L48.8574 192.965ZM49.8999 185.106L54.1277 187.775L54.1276 187.775L49.8999 185.106ZM81.492 181.912L86.4766 181.519L86.9013 186.912H81.492V181.912ZM80.559 176.127L75.6587 177.121L75.6587 177.121L80.559 176.127ZM79.4829 171.069L84.3691 170.007L84.3691 170.008L79.4829 171.069ZM78.3676 165.856L83.2627 164.837L83.2627 164.837L78.3676 165.856ZM75.1576 140.43L70.1576 140.43V140.43H75.1576ZM81.7524 117.036L77.8366 113.927L77.8366 113.927L81.7524 117.036ZM195.33 135.098L192.617 139.297L192.617 139.297L195.33 135.098ZM225.039 159.941L221.272 163.229L221.272 163.229L225.039 159.941ZM196.843 217.329L192.619 214.655L192.619 214.655L196.843 217.329ZM234.587 182.186L239.58 181.921L239.783 185.745L236.144 186.937L234.587 182.186ZM158.116 309.132L153.337 307.66L153.337 307.66L158.116 309.132ZM147.003 346.241L151.806 347.631L150.761 351.241H147.003V346.241ZM7.01379 297.822L2.01569 297.96L1.87421 292.822H7.01379V297.822ZM7.02133 295.822V300.822H1.80606L2.02577 295.612L7.02133 295.822ZM22.6704 264.739L26.2976 268.18L26.2976 268.18L22.6704 264.739ZM64.1476 244.21L59.9199 241.54L59.9199 241.54L64.1476 244.21ZM65.1901 236.35L70.1459 235.687L70.1459 235.687L65.1901 236.35ZM57.9971 214.398L53.3576 216.262L53.3575 216.262L57.9971 214.398ZM57.9517 214.285L62.5911 212.421L62.5913 212.421L57.9517 214.285ZM50.8397 192.7L55.7954 192.036L55.7954 192.036L50.8397 192.7ZM51.591 186.174L55.8188 188.843L55.8187 188.843L51.591 186.174ZM83.4972 181.912V186.912H78.838L78.5097 182.264L83.4972 181.912ZM82.5191 175.73L77.6189 176.724L77.6189 176.723L82.5191 175.73ZM81.4323 170.62L86.3185 169.56L86.3185 169.56L81.4323 170.62ZM80.3257 165.449L85.2207 164.43L85.2207 164.43L80.3257 165.449ZM77.1576 140.43L72.1576 140.43V140.43H77.1576ZM83.3188 118.28L79.4029 115.171L79.4029 115.171L83.3188 118.28ZM194.245 136.778L196.958 132.578L196.958 132.578L194.245 136.778ZM223.533 161.257L227.299 157.969L227.299 157.969L223.533 161.257ZM221.194 475.136L221.174 470.136L221.619 470.134L222.057 470.211L221.194 475.136ZM209.932 474.274L210.745 469.34L210.745 469.34L209.932 474.274ZM209.098 473.205L204.115 472.798L204.115 472.798L209.098 473.205ZM221.389 473.14L221.42 478.14L220.977 478.143L220.541 478.068L221.389 473.14ZM279.261 435.1L274.622 433.236L274.622 433.236L279.261 435.1ZM281.353 435.251L277.716 438.682L275.542 436.377L276.698 433.427L281.353 435.251ZM356.601 472.005L355.332 467.168L355.332 467.168L356.601 472.005ZM383.032 457.039L386.232 460.88L386.232 460.88L383.032 457.039ZM398.617 442.745L395.152 439.14L395.152 439.14L398.617 442.745ZM406.595 435.173L411.357 433.648L412.327 436.679L409.991 438.842L406.595 435.173ZM404.831 408.778L409.523 410.506L409.523 410.506L404.831 408.778ZM412.251 399.911L414.753 404.24L414.753 404.24L412.251 399.911ZM413.252 401.643L415.754 405.971L415.754 405.971L413.252 401.643ZM406.707 409.469L411.399 411.197L411.399 411.197L406.707 409.469ZM408.693 435.162L403.942 436.718L403.942 436.718L408.693 435.162ZM427.775 472.728L431.92 469.931L431.92 469.931L427.775 472.728ZM427.614 474.031L430.955 477.75L430.955 477.75L427.614 474.031ZM409.97 492.619L406.056 489.507L406.056 489.507L409.97 492.619ZM398.084 512.973L393.31 511.485L393.31 511.485L398.084 512.973ZM400.67 528.694L404.128 525.082L404.128 525.082L400.67 528.694ZM515.227 535.309L520.227 535.307L520.229 540.309H515.227V535.309ZM499.97 394.803L504.745 393.322L504.745 393.322L499.97 394.803ZM466.035 334.963L462.575 338.572L462.575 338.572L466.035 334.963ZM333.825 310.426V315.426H328.825L328.825 310.426L333.825 310.426ZM333.825 308.426L328.825 308.426L328.825 303.426H333.825V308.426ZM336.298 308.426L341.072 306.94L343.091 313.426H336.298V308.426ZM295.213 218.401L299.332 215.565L299.332 215.565L295.213 218.401ZM266.976 189.099L264.315 193.332L264.315 193.332L266.976 189.099ZM235.899 183.868L234.437 179.087L234.437 179.087L235.899 183.868ZM198.533 218.399L202.758 221.074L202.758 221.074L198.533 218.399ZM160.027 309.72L164.805 311.192L164.805 311.192L160.027 309.72ZM148.715 347.518L153.519 348.907L153.519 348.907L148.715 347.518ZM132.789 401.556L127.997 400.127L127.997 400.127L132.789 401.556ZM116.271 458.691L111.438 457.409L111.438 457.409L116.271 458.691ZM109.027 492.249L104.071 491.589L104.071 491.589L109.027 492.249ZM109.334 514.101L114.17 512.833L114.17 512.833L109.334 514.101ZM118.076 526.69L120.871 522.545L120.871 522.545L118.076 526.69ZM136.864 532.997L137.648 528.059L137.648 528.059L136.864 532.997ZM201.361 535.313L201.365 540.313L201.364 540.313L201.361 535.313ZM209.683 535.309L213.208 538.856L211.745 540.309L209.684 540.309L209.683 535.309ZM225.429 517.014L229.481 519.943L229.481 519.943L225.429 517.014ZM236.239 496.648L231.429 495.284L231.429 495.284L236.239 496.648ZM233.885 480.869L237.511 477.425L237.511 477.425L233.885 480.869ZM235.253 176.771C247.849 173.384 259.861 176.356 270.703 183.174L265.379 191.639C256.308 185.935 247.151 183.927 237.851 186.428L235.253 176.771ZM270.703 183.174C281.816 190.162 291.948 201.314 300.979 214.431L292.742 220.102C284.097 207.545 274.88 197.613 265.379 191.639L270.703 183.174ZM300.979 214.431C318.926 240.498 333.521 275.808 343.168 306.946L333.616 309.906C324.119 279.251 309.887 245.004 292.742 220.102L300.979 214.431ZM338.392 303.426H338.424V313.426H338.392V303.426ZM338.424 303.426H338.474V313.426H338.424V303.426ZM338.474 303.426H338.476V313.426H338.474V303.426ZM338.476 303.426H338.484V313.426H338.476V303.426ZM338.484 303.426H338.524V313.426H338.484V303.426ZM338.524 303.426H338.558V313.426H338.524V303.426ZM338.558 303.426H338.574V313.426H338.558V303.426ZM338.574 303.426H338.613V313.426H338.574V303.426ZM338.613 303.426H338.624V313.426H338.613V303.426ZM338.624 303.426H338.639V313.426H338.624V303.426ZM338.639 303.426H338.673V313.426H338.639V303.426ZM338.673 303.426H338.718V313.426H338.673V303.426ZM338.718 303.426H338.723V313.426H338.718V303.426ZM338.723 303.426H338.744V313.426H338.723V303.426ZM338.744 303.426H338.771V313.426H338.744V303.426ZM338.771 303.426H338.795V313.426H338.771V303.426ZM338.795 303.426H338.82V313.426H338.795V303.426ZM338.82 303.426H338.868V313.426H338.82V303.426ZM338.868 303.426H338.87V313.426H338.868V303.426ZM338.87 303.426H338.877V313.426H338.87V303.426ZM338.877 303.426H338.915V313.426H338.877V303.426ZM338.915 303.426H338.943V313.426H338.915V303.426ZM338.943 303.426H338.963V313.426H338.943V303.426ZM338.963 303.426H339.01V313.426H338.963V303.426ZM339.01 303.426H339.013V313.426H339.01V303.426ZM339.013 303.426H339.015V313.426H339.013V303.426ZM339.015 303.426H339.056V313.426H339.015V303.426ZM339.056 303.426H339.085V313.426H339.056V303.426ZM339.085 303.426H339.102V313.426H339.085V303.426ZM339.102 303.426H339.148V313.426H339.102V303.426ZM339.148 303.426H339.15V313.426H339.148V303.426ZM339.15 303.426H339.154V313.426H339.15V303.426ZM339.154 303.426H339.193V313.426H339.154V303.426ZM339.193 303.426H339.22V313.426H339.193V303.426ZM339.22 303.426H339.238V313.426H339.22V303.426ZM339.238 303.426H339.282V313.426H339.238V303.426ZM339.282 303.426H339.285V313.426H339.282V303.426ZM339.285 303.426H339.289V313.426H339.285V303.426ZM339.289 303.426H339.326V313.426H339.289V303.426ZM339.326 303.426H339.349V313.426H339.326V303.426ZM339.349 303.426H339.37V313.426H339.349V303.426ZM339.37 303.426H339.41V313.426H339.37V303.426ZM339.41 303.426H339.412V313.426H339.41V303.426ZM339.412 303.426H339.431V313.426H339.412V303.426ZM339.431 303.426H339.455V313.426H339.431V303.426ZM339.455 303.426H339.471V313.426H339.455V303.426ZM339.471 303.426H339.497V313.426H339.471V303.426ZM339.497 303.426H339.529V313.426H339.497V303.426ZM339.529 303.426H339.538V313.426H339.529V303.426ZM339.538 303.426H339.575V313.426H339.538V303.426ZM339.575 303.426H339.579V313.426H339.575V303.426ZM339.579 303.426H339.586V313.426H339.579V303.426ZM339.586 303.426H339.619V313.426H339.586V303.426ZM339.619 303.426H339.641V313.426H339.619V303.426ZM339.641 303.426H339.659V313.426H339.641V303.426ZM339.659 303.426H339.695V313.426H339.659V303.426ZM339.695 303.426H339.698V313.426H339.695V303.426ZM339.698 303.426H339.721V313.426H339.698V303.426ZM339.721 303.426H339.737V313.426H339.721V303.426ZM339.737 303.426H339.747V313.426H339.737V303.426ZM339.747 303.426H339.774V313.426H339.747V303.426ZM339.774 303.426H339.798V313.426H339.774V303.426ZM339.798 303.426H339.812V313.426H339.798V303.426ZM339.812 303.426H339.847V313.426H339.812V303.426ZM339.847 303.426H339.849V313.426H339.847V303.426ZM339.849 303.426H339.869V313.426H339.849V303.426ZM339.869 303.426H339.885V313.426H339.869V303.426ZM339.885 303.426H339.894V313.426H339.885V303.426ZM339.894 303.426H339.92V313.426H339.894V303.426ZM339.92 303.426H339.94V313.426H339.92V303.426ZM339.94 303.426H339.955V313.426H339.94V303.426ZM339.955 303.426H339.985V313.426H339.955V303.426ZM339.985 303.426H339.989V313.426H339.985V303.426ZM339.989 303.426H340.019V313.426H339.989V303.426ZM340.019 303.426H340.022V313.426H340.019V303.426ZM340.022 303.426H340.027V313.426H340.022V303.426ZM340.027 303.426H340.055V313.426H340.027V303.426ZM340.055 303.426H340.069V313.426H340.055V303.426ZM340.069 303.426H340.087V313.426H340.069V303.426ZM340.087 303.426H340.109V313.426H340.087V303.426ZM340.109 303.426H340.119V313.426H340.109V303.426ZM340.119 303.426H340.147V313.426H340.119V303.426ZM340.147 303.426H340.149V313.426H340.147V303.426ZM340.149 303.426H340.172V313.426H340.149V303.426ZM340.172 303.426H340.179V313.426H340.172V303.426ZM340.179 303.426H340.184V313.426H340.179V303.426ZM340.184 303.426H340.208V313.426H340.184V303.426ZM340.208 303.426H340.22V313.426H340.208V303.426ZM340.22 303.426H340.237V313.426H340.22V303.426ZM340.237 303.426H340.254V313.426H340.237V303.426ZM340.254 303.426H340.264V313.426H340.254V303.426ZM340.264 303.426H340.287V313.426H340.264V303.426ZM340.287 303.426H340.291V313.426H340.287V303.426ZM340.291 303.426H340.317V313.426H340.291V303.426ZM340.317 303.426H340.318V313.426H340.317V303.426ZM340.318 303.426H340.326V313.426H340.318V303.426ZM340.326 303.426H340.342V313.426H340.326V303.426ZM340.342 303.426H340.348V313.426H340.342V303.426ZM340.348 303.426H340.367V313.426H340.348V303.426ZM340.367 303.426H340.377V313.426H340.367V303.426ZM340.377 303.426H340.39V313.426H340.377V303.426ZM340.39 303.426H340.404V313.426H340.39V303.426ZM340.404 303.426H340.413V313.426H340.404V303.426ZM340.413 303.426H340.43V313.426H340.413V303.426ZM340.43 303.426H340.435V313.426H340.43V303.426ZM340.435 303.426H340.454V313.426H340.435V303.426ZM340.454 303.426H340.456V313.426H340.454V303.426ZM340.456 303.426H340.476V313.426H340.456V303.426ZM340.476 303.426H340.477V313.426H340.476V303.426ZM340.477 303.426H340.483V313.426H340.477V303.426ZM340.483 303.426H340.495V313.426H340.483V303.426ZM340.495 303.426H340.499V313.426H340.495V303.426ZM340.499 303.426H340.514V313.426H340.499V303.426ZM340.514 303.426H340.519V313.426H340.514V303.426ZM340.519 303.426H340.531V313.426H340.519V303.426ZM340.531 303.426H340.539V313.426H340.531V303.426ZM340.539 303.426H340.548V313.426H340.539V303.426ZM340.548 303.426H340.556V313.426H340.548V303.426ZM340.556 303.426H340.563V313.426H340.556V303.426ZM340.563 303.426H340.573V313.426H340.563V303.426ZM340.573 303.426H340.578V313.426H340.573V303.426ZM340.578 303.426H340.588V313.426H340.578V303.426ZM340.588 303.426H340.591V313.426H340.588V303.426ZM340.591 303.426H340.602V313.426H340.591V303.426ZM340.602 303.426H340.604V313.426H340.602V303.426ZM340.604 303.426H340.615V313.426H340.604V303.426ZM340.615 303.426H340.616V313.426H340.615V303.426ZM340.616 303.426H340.627V313.426H340.616V303.426ZM340.627 303.426H340.636V313.426H340.627V303.426ZM340.636 303.426H340.637V313.426H340.636V303.426ZM340.637 303.426H340.642V313.426H340.637V303.426ZM340.642 303.426H340.645V313.426H340.642V303.426ZM340.645 303.426H340.646V313.426H340.645V303.426ZM340.646 303.426H340.653V313.426H340.646V303.426ZM340.653 303.426H340.654V313.426H340.653V303.426ZM340.654 303.426H340.659V313.426H340.654V303.426ZM340.659 303.426H340.661V313.426H340.659V303.426ZM340.661 303.426H340.665V313.426H340.661V303.426ZM340.665 303.426H340.666V313.426H340.665V303.426ZM340.666 303.426H340.67V313.426H340.666V303.426ZM340.67 303.426H340.671V313.426H340.67V303.426ZM340.671 303.426H340.673V313.426H340.671V303.426ZM340.673 303.426H340.674V313.426H340.673V303.426ZM340.674 303.426H340.675V313.426H340.674V303.426ZM340.675 303.426H340.676V313.426H340.675V303.426ZM340.676 303.426H340.677V313.426H340.676V303.426ZM340.677 303.426H340.677V313.426H340.677V303.426ZM340.677 303.426H340.804V313.426H340.677V303.426ZM340.804 303.426H340.967V313.426H340.804V303.426ZM340.967 303.426H341.133V313.426H340.967V303.426ZM341.133 303.426H341.301V313.426H341.133V303.426ZM341.301 303.426H341.471V313.426H341.301V303.426ZM341.471 303.426H341.644V313.426H341.471V303.426ZM341.644 303.426H341.819V313.426H341.644V303.426ZM341.819 303.426H341.996V313.426H341.819V303.426ZM341.996 303.426H342.176V313.426H341.996V303.426ZM342.176 303.426H342.358V313.426H342.176V303.426ZM342.358 303.426H342.542V313.426H342.358V303.426ZM342.542 303.426H342.728V313.426H342.542V303.426ZM342.728 303.426H342.917V313.426H342.728V303.426ZM342.917 303.426H343.109V313.426H342.917V303.426ZM343.109 303.426H343.302V313.426H343.109V303.426ZM343.302 303.426H343.499V313.426H343.302V303.426ZM343.499 303.426H343.697V313.426H343.499V303.426ZM343.697 303.426H343.898V313.426H343.697V303.426ZM343.898 303.426H344.102V313.426H343.898V303.426ZM344.102 303.426H344.308V313.426H344.102V303.426ZM344.308 303.426H344.516V313.426H344.308V303.426ZM344.516 303.426H344.727V313.426H344.516V303.426ZM344.727 303.426H344.94V313.426H344.727V303.426ZM344.94 303.426H345.156V313.426H344.94V303.426ZM345.156 303.426H345.374V313.426H345.156V303.426ZM345.374 303.426H345.595V313.426H345.374V303.426ZM345.595 303.426H345.818V313.426H345.595V303.426ZM345.818 303.426H346.044V313.426H345.818V303.426ZM346.044 303.426H346.273V313.426H346.044V303.426ZM346.273 303.426H346.504V313.426H346.273V303.426ZM346.504 303.426H346.737V313.426H346.504V303.426ZM346.737 303.426H346.974V313.426H346.737V303.426ZM346.974 303.426H347.212V313.426H346.974V303.426ZM347.212 303.426H347.454V313.426H347.212V303.426ZM347.454 303.426H347.698V313.426H347.454V303.426ZM347.698 303.426H347.944V313.426H347.698V303.426ZM347.944 303.426H348.194V313.426H347.944V303.426ZM348.194 303.426H348.446V313.426H348.194V303.426ZM348.446 303.426H348.7V313.426H348.446V303.426ZM348.7 303.426H348.958V313.426H348.7V303.426ZM348.958 303.426H349.218V313.426H348.958V303.426ZM349.218 303.426H349.481V313.426H349.218V303.426ZM349.481 303.426H349.746V313.426H349.481V303.426ZM349.746 303.426H350.014V313.426H349.746V303.426ZM350.014 303.426H350.285V313.426H350.014V303.426ZM350.285 303.426H350.559V313.426H350.285V303.426ZM350.559 303.426H350.835V313.426H350.559V303.426ZM350.835 303.426H351.115V313.426H350.835V303.426ZM351.115 303.426H351.397V313.426H351.115V303.426ZM351.397 303.426H351.681V313.426H351.397V303.426ZM351.681 303.426H351.969V313.426H351.681V303.426ZM351.969 303.426H352.26V313.426H351.969V303.426ZM352.26 303.426H352.553V313.426H352.26V303.426ZM352.553 303.426H352.849V313.426H352.553V303.426ZM352.849 303.426H353.148V313.426H352.849V303.426ZM353.148 303.426H353.45V313.426H353.148V303.426ZM353.45 303.426H353.755V313.426H353.45V303.426ZM353.755 303.426H354.062V313.426H353.755V303.426ZM354.062 303.426H354.373V313.426H354.062V303.426ZM354.373 303.426H354.686V313.426H354.373V303.426ZM354.686 303.426H355.003V313.426H354.686V303.426ZM355.003 303.426H355.322V313.426H355.003V303.426ZM355.322 303.426H355.644V313.426H355.322V303.426ZM355.644 303.426H355.97V313.426H355.644V303.426ZM355.97 303.426H356.298V313.426H355.97V303.426ZM356.298 303.426H356.629V313.426H356.298V303.426ZM356.629 303.426H356.963V313.426H356.629V303.426ZM356.963 303.426H357.3V313.426H356.963V303.426ZM357.3 303.426H357.641V313.426H357.3V303.426ZM357.641 303.426H357.984V313.426H357.641V303.426ZM357.984 303.426H358.33V313.426H357.984V303.426ZM358.33 303.426H358.68V313.426H358.33V303.426ZM358.68 303.426H359.032V313.426H358.68V303.426ZM359.032 303.426H359.388V313.426H359.032V303.426ZM359.388 303.426H359.746V313.426H359.388V303.426ZM359.746 303.426H360.108V313.426H359.746V303.426ZM360.108 303.426H360.473V313.426H360.108V303.426ZM360.473 303.426H360.841V313.426H360.473V303.426ZM360.841 303.426H361.212V313.426H360.841V303.426ZM361.212 303.426H361.586V313.426H361.212V303.426ZM361.586 303.426H361.963V313.426H361.586V303.426ZM361.963 303.426H362.344V313.426H361.963V303.426ZM362.344 303.426H362.728V313.426H362.344V303.426ZM362.728 303.426H363.115V313.426H362.728V303.426ZM363.115 303.426H363.505V313.426H363.115V303.426ZM363.505 303.426H363.898V313.426H363.505V303.426ZM363.898 303.426H364.295V313.426H363.898V303.426ZM364.295 303.426H364.695V313.426H364.295V303.426ZM364.695 303.426H365.098V313.426H364.695V303.426ZM365.098 303.426H365.504V313.426H365.098V303.426ZM365.504 303.426H365.914V313.426H365.504V303.426ZM365.914 303.426H366.327V313.426H365.914V303.426ZM366.327 303.426H366.743V313.426H366.327V303.426ZM366.743 303.426H367.162V313.426H366.743V303.426ZM367.162 303.426H367.585V313.426H367.162V303.426ZM367.585 303.426H368.011V313.426H367.585V303.426ZM368.011 303.426H368.441V313.426H368.011V303.426ZM368.441 303.426H368.874V313.426H368.441V303.426ZM368.874 303.426H369.31V313.426H368.874V303.426ZM369.31 303.426H369.75V313.426H369.31V303.426ZM369.75 303.426H370.193V313.426H369.75V303.426ZM370.193 303.426H370.639V313.426H370.193V303.426ZM370.639 303.426H371.089V313.426H370.639V303.426ZM371.089 303.426H371.542V313.426H371.089V303.426ZM371.542 303.426H371.999V313.426H371.542V303.426ZM371.999 303.426H372.459V313.426H371.999V303.426ZM372.459 303.426H372.923V313.426H372.459V303.426ZM372.923 303.426H373.39V313.426H372.923V303.426ZM373.39 303.426H373.861V313.426H373.39V303.426ZM373.861 303.426H374.335V313.426H373.861V303.426ZM374.335 303.426H374.813V313.426H374.335V303.426ZM374.813 303.426H375.294V313.426H374.813V303.426ZM375.294 303.426H375.778V313.426H375.294V303.426ZM375.778 303.426H376.267V313.426H375.778V303.426ZM376.267 303.426H376.758V313.426H376.267V303.426ZM376.758 303.426H377.254V313.426H376.758V303.426ZM377.254 303.426H377.753V313.426H377.254V303.426ZM377.753 303.426H378.255V313.426H377.753V303.426ZM378.255 303.426H378.761V313.426H378.255V303.426ZM378.761 303.426H379.271V313.426H378.761V303.426ZM379.271 303.426H379.784V313.426H379.271V303.426ZM379.784 303.426H380.301V313.426H379.784V303.426ZM380.301 303.426H380.822V313.426H380.301V303.426ZM380.822 303.426H381.346V313.426H380.822V303.426ZM381.346 303.426H381.874V313.426H381.346V303.426ZM381.874 303.426H382.406V313.426H381.874V303.426ZM382.406 303.426H382.941V313.426H382.406V303.426ZM382.941 303.426H383.48V313.426H382.941V303.426ZM383.48 303.426H384.023V313.426H383.48V303.426ZM384.023 303.426H384.57V313.426H384.023V303.426ZM384.57 303.426H385.12V313.426H384.57V303.426ZM385.12 303.426H385.674V313.426H385.12V303.426ZM385.674 303.426H386.232V313.426H385.674V303.426ZM386.232 303.426H386.793V313.426H386.232V303.426ZM386.793 303.426H387.359V313.426H386.793V303.426ZM387.359 303.426H387.928V313.426H387.359V303.426ZM387.928 303.426H388.501V313.426H387.928V303.426ZM388.501 303.426H389.077V313.426H388.501V303.426ZM389.077 303.426H389.658V313.426H389.077V303.426ZM389.658 303.426H390.243V313.426H389.658V303.426ZM390.243 303.426H390.831V313.426H390.243V303.426ZM390.831 303.426H391.423V313.426H390.831V303.426ZM391.423 303.426H392.019V313.426H391.423V303.426ZM392.019 303.426H392.619V313.426H392.019V303.426ZM392.619 303.426H393.223V313.426H392.619V303.426ZM393.223 303.426H393.831V313.426H393.223V303.426ZM393.831 303.426H394.442V313.426H393.831V303.426ZM394.442 303.426H395.058V313.426H394.442V303.426ZM395.058 303.426H395.678V313.426H395.058V303.426ZM395.678 303.426H396.301V313.426H395.678V303.426ZM396.301 303.426H396.929V313.426H396.301V303.426ZM396.929 303.426H397.56V313.426H396.929V303.426ZM397.56 303.426H398.196V313.426H397.56V303.426ZM398.196 303.426H398.835V313.426H398.196V303.426ZM398.835 303.426H399.479V313.426H398.835V303.426ZM399.479 303.426H400.127V313.426H399.479V303.426ZM400.127 303.426H400.778V313.426H400.127V303.426ZM400.778 303.426H401.434V313.426H400.778V303.426ZM401.434 303.426C431.002 303.426 453.708 313.448 470.879 329.91L463.959 337.129C448.7 322.5 428.494 313.426 401.434 313.426V303.426ZM470.879 329.91C487.901 346.229 499.152 368.548 506.656 392.729L497.105 395.693C489.885 372.424 479.317 351.853 463.959 337.129L470.879 329.91ZM506.656 392.729C521.63 440.989 522.227 498.593 522.227 536.309H512.227C512.227 498.43 511.566 442.298 497.105 395.693L506.656 392.729ZM522.227 536.309C522.227 539.623 519.541 542.309 516.227 542.309V532.309C514.018 532.309 512.227 534.1 512.227 536.309H522.227ZM516.227 542.309H426.946V532.309H516.227V542.309ZM426.946 542.309C412.548 542.309 402.036 539.691 395.83 533.75L402.745 526.526C406.037 529.678 413.158 532.309 426.946 532.309V542.309ZM395.83 533.75C389.053 527.263 389.008 518.567 391.401 510.89L400.948 513.866C399.132 519.692 399.834 523.74 402.745 526.526L395.83 533.75ZM391.401 510.89C393.771 503.284 398.832 495.379 404.491 488.262L412.318 494.486C406.956 501.23 402.778 507.995 400.948 513.866L391.401 510.89ZM404.491 488.262C410.011 481.32 416.408 474.749 422.272 469.424L428.994 476.827C423.448 481.863 417.44 488.045 412.318 494.486L404.491 488.262ZM421.474 475.9C414.805 465.903 407.147 452.182 402.561 438.888L412.015 435.627C416.233 447.855 423.418 460.795 429.792 470.35L421.474 475.9ZM410.696 440.916C408.332 443.119 405.962 445.396 403.547 447.717L396.618 440.506C399.023 438.195 401.449 435.864 403.88 433.6L410.696 440.916ZM403.547 447.717C398.406 452.656 393.058 457.797 387.512 462.417L381.112 454.733C386.338 450.38 391.429 445.491 396.618 440.506L403.547 447.717ZM387.512 462.417C378.95 469.548 369.419 475.878 358.378 478.775L355.84 469.103C364.825 466.745 373.026 461.468 381.112 454.733L387.512 462.417ZM358.378 478.775C335.777 484.706 310.027 475.62 276.896 440.725L284.148 433.84C316.382 467.79 338.565 473.636 355.84 469.103L358.378 478.775ZM285.121 439.245C272.963 467.742 248.524 477.906 228.297 479.792L227.369 469.836C245.116 468.181 265.616 459.48 275.923 435.32L285.121 439.245ZM229.565 470.123C233.338 471.517 236.511 473.469 238.961 476.048L231.71 482.935C230.517 481.679 228.741 480.479 226.101 479.504L229.565 470.123ZM238.961 476.048C245.106 482.519 245.107 491.029 242.974 498.556L233.353 495.83C235.032 489.905 234.367 485.732 231.71 482.935L238.961 476.048ZM242.974 498.556C240.836 506.1 236.257 513.983 231.102 521.114L222.997 515.256C227.865 508.522 231.677 501.742 233.353 495.83L242.974 498.556ZM231.102 521.114C225.892 528.322 219.819 535.136 214.312 540.577L207.283 533.464C212.471 528.338 218.166 521.94 222.997 515.256L231.102 521.114ZM214.312 540.577C213.189 541.687 211.673 542.309 210.095 542.309V532.309C209.043 532.309 208.032 532.724 207.283 533.464L214.312 540.577ZM210.095 542.309C207.09 542.309 204.158 542.311 201.298 542.314L201.29 532.314C204.15 532.311 207.085 532.309 210.095 532.309V542.309ZM201.298 542.314C172.969 542.336 151.264 542.369 135.767 539.91L137.334 530.034C151.852 532.338 172.581 532.337 201.29 532.314L201.298 542.314ZM135.767 539.91C127.189 538.549 119.866 536.341 114.162 532.494L119.753 524.203C123.71 526.871 129.377 528.771 137.334 530.034L135.767 539.91ZM114.162 532.494C108.237 528.498 104.426 522.983 102.563 515.876L112.236 513.34C113.514 518.216 115.944 521.634 119.753 524.203L114.162 532.494ZM102.563 515.876C100.763 509.013 100.821 500.838 102.089 491.325L112.001 492.645C110.806 501.617 110.915 508.301 112.236 513.34L102.563 515.876ZM102.089 491.325C103.363 481.758 105.93 470.374 109.505 456.896L119.171 459.46C115.631 472.806 113.191 483.71 112.001 492.645L102.089 491.325ZM109.505 456.896C113.694 441.103 119.347 422.143 126.095 399.507L135.678 402.363C128.914 425.052 123.312 443.847 119.171 459.46L109.505 456.896ZM126.095 399.507C130.771 383.821 135.982 366.342 141.621 346.851L151.227 349.63C145.575 369.165 140.354 386.68 135.678 402.363L126.095 399.507ZM146.424 353.241H69.7797V343.241H146.424V353.241ZM69.7797 353.241C29.1752 353.241 0 326.244 0 296.822H10C10 319.222 33.0683 343.241 69.7797 343.241V353.241ZM0 296.822C0 284.599 7.4724 270.587 17.5922 259.921L24.8467 266.803C15.6483 276.499 10 288.165 10 296.822H0ZM17.5922 259.921C27.774 249.189 41.9962 240.404 57.0237 240.404V250.404C45.7824 250.404 34.0039 257.152 24.8467 266.803L17.5922 259.921ZM57.0237 240.404C58.029 240.404 58.4257 240.246 58.4809 240.221C58.4999 240.213 58.4561 240.231 58.3859 240.292C58.3154 240.353 58.2617 240.42 58.2287 240.472L66.6843 245.811C64.6155 249.088 61.0663 250.404 57.0237 250.404V240.404ZM58.2288 240.472C58.1732 240.56 58.2853 240.433 58.3493 239.869C58.4132 239.304 58.4104 238.462 58.2521 237.28L68.1636 235.952C68.5991 239.204 68.5467 242.862 66.6843 245.811L58.2288 240.472ZM58.2521 237.28C57.5782 232.249 54.765 225.129 51.4564 216.895L60.7353 213.166C63.8444 220.904 67.284 229.385 68.1636 235.952L58.2521 237.28ZM51.4568 216.896L51.4114 216.783L60.6895 213.052L60.7349 213.165L51.4568 216.896ZM51.411 216.782C48.3527 209.171 44.8181 200.471 43.9016 193.629L53.8131 192.301C54.5245 197.612 57.4386 204.962 60.6899 213.053L51.411 216.782ZM43.9016 193.629C43.4477 190.24 43.4266 185.993 45.6722 182.436L54.1276 187.775C53.7977 188.298 53.4514 189.6 53.8131 192.301L43.9016 193.629ZM45.6722 182.436C48.237 178.374 52.5788 176.912 57.0237 176.912V186.912C54.6694 186.912 54.2437 187.592 54.1277 187.775L45.6722 182.436ZM57.0237 176.912H81.492V186.912H57.0237V176.912ZM76.5075 182.304C76.4181 181.169 76.1364 179.476 75.6587 177.121L85.4593 175.134C85.9432 177.52 86.3356 179.728 86.4766 181.519L76.5075 182.304ZM75.6587 177.121C75.351 175.603 74.9923 173.951 74.5968 172.13L84.3691 170.008C84.761 171.812 85.1353 173.536 85.4593 175.134L75.6587 177.121ZM74.5968 172.13C74.242 170.496 73.8601 168.737 73.4726 166.876L83.2627 164.837C83.6401 166.651 84.0132 168.369 84.3691 170.007L74.5968 172.13ZM73.4726 166.876C71.8643 159.15 70.1577 149.659 70.1576 140.43L80.1576 140.43C80.1577 148.573 81.6774 157.223 83.2627 164.837L73.4726 166.876ZM70.1576 140.43C70.1576 131.287 71.8245 121.499 77.8366 113.927L85.6682 120.145C81.7039 125.138 80.1576 132.229 80.1576 140.43H70.1576ZM77.8366 113.927C84.0662 106.081 94.0213 101.753 108.047 101.753V111.753C96.138 111.753 89.4874 115.335 85.6682 120.145L77.8366 113.927ZM108.047 101.753C140.155 101.753 173.167 114.826 198.044 130.898L192.617 139.297C168.808 123.915 137.666 111.753 108.047 111.753V101.753ZM198.044 130.898C210.519 138.957 221.183 147.92 228.806 156.653L221.272 163.229C214.396 155.351 204.498 146.973 192.617 139.297L198.044 130.898ZM228.806 156.653C235.749 164.608 240.878 173.178 241.535 181.191L231.569 182.008C231.179 177.261 227.813 170.722 221.272 163.229L228.806 156.653ZM192.619 214.655C205.569 194.2 219.031 182.019 233.031 177.434L236.144 186.937C225.313 190.484 213.454 200.44 201.068 220.004L192.619 214.655ZM153.337 307.66C166.2 265.897 179.363 235.593 192.619 214.655L201.068 220.004C188.475 239.895 175.625 269.268 162.894 310.603L153.337 307.66ZM142.2 344.851C145.579 333.176 149.292 320.793 153.337 307.66L162.894 310.603C158.863 323.692 155.166 336.02 151.806 347.631L142.2 344.851ZM69.7797 341.241H147.003V351.241H69.7797V341.241ZM12.0119 297.685C12.5839 318.457 34.3644 341.241 69.7797 341.241V351.241C30.4699 351.241 2.77543 325.548 2.01569 297.96L12.0119 297.685ZM57.0237 302.822H7.01379V292.822H57.0237V302.822ZM63.0237 296.822C63.0237 300.136 60.3375 302.822 57.0237 302.822V292.822C54.8146 292.822 53.0237 294.613 53.0237 296.822H63.0237ZM57.0237 290.822C60.3375 290.822 63.0237 293.509 63.0237 296.822H53.0237C53.0237 299.031 54.8146 300.822 57.0237 300.822V290.822ZM7.02133 290.822H57.0237V300.822H7.02133V290.822ZM26.2976 268.18C17.6133 277.333 12.3508 288.114 12.0169 296.033L2.02577 295.612C2.49846 284.401 9.42153 271.439 19.0431 261.297L26.2976 268.18ZM57.0237 252.404C46.5386 252.404 35.2489 258.745 26.2976 268.18L19.0431 261.297C29.0207 250.781 42.7541 242.404 57.0237 242.404V252.404ZM68.3754 246.879C65.8105 250.941 61.4687 252.404 57.0237 252.404V242.404C59.3781 242.404 59.8038 241.724 59.9199 241.54L68.3754 246.879ZM70.1459 235.687C70.5998 239.076 70.6209 243.323 68.3754 246.879L59.9199 241.54C60.2498 241.017 60.5961 239.715 60.2344 237.014L70.1459 235.687ZM62.6365 212.534C65.6948 220.145 69.2294 228.844 70.1459 235.687L60.2344 237.014C59.5231 231.703 56.6089 224.354 53.3576 216.262L62.6365 212.534ZM62.5913 212.421L62.6367 212.534L53.3575 216.262L53.312 216.149L62.5913 212.421ZM55.7954 192.036C56.4693 197.067 59.2825 204.187 62.5911 212.421L53.3122 216.149C50.2031 208.412 46.7635 199.93 45.8839 193.363L55.7954 192.036ZM55.8187 188.843C55.8743 188.755 55.7623 188.882 55.6983 189.447C55.6343 190.011 55.6371 190.853 55.7954 192.036L45.8839 193.363C45.4485 190.112 45.5008 186.454 47.3633 183.504L55.8187 188.843ZM57.0237 188.912C56.0185 188.912 55.6218 189.069 55.5667 189.094C55.5476 189.103 55.5914 189.085 55.6616 189.024C55.7321 188.963 55.7858 188.895 55.8188 188.843L47.3632 183.504C49.432 180.228 52.9812 178.912 57.0237 178.912V188.912ZM82.5356 188.912H57.0237V178.912H82.5356V188.912ZM95.2916 188.912H82.5356V178.912H95.2916V188.912ZM101.292 182.912C101.292 186.225 98.6052 188.912 95.2916 188.912V178.912C93.0824 178.912 91.2916 180.702 91.2916 182.912H101.292ZM95.2916 176.912C98.6052 176.912 101.292 179.598 101.292 182.912H91.2916C91.2916 185.121 93.0824 186.912 95.2916 186.912V176.912ZM83.4972 176.912H95.2916V186.912H83.4972V176.912ZM87.4194 174.736C87.9109 177.16 88.3433 179.557 88.4848 181.559L78.5097 182.264C78.4182 180.969 78.1071 179.132 77.6189 176.724L87.4194 174.736ZM86.3185 169.56C86.7156 171.389 87.0973 173.148 87.4194 174.736L77.6189 176.723C77.3131 175.215 76.9469 173.528 76.546 171.681L86.3185 169.56ZM85.2207 164.43C85.588 166.194 85.9608 167.912 86.3185 169.56L76.546 171.681C76.1895 170.038 75.8078 168.28 75.4306 166.468L85.2207 164.43ZM82.1576 140.43C82.1577 148.356 83.6399 156.837 85.2207 164.43L75.4306 166.468C73.8269 158.765 72.1577 149.442 72.1576 140.43L82.1576 140.43ZM87.2346 121.389C83.6796 125.866 82.1576 132.417 82.1576 140.43H72.1576C72.1576 131.475 73.8005 122.227 79.4029 115.171L87.2346 121.389ZM108.047 113.753C96.5641 113.753 90.573 117.184 87.2346 121.389L79.4029 115.171C85.1495 107.933 94.4427 103.753 108.047 103.753V113.753ZM191.532 140.977C167.936 125.733 137.169 113.753 108.047 113.753V103.753C139.657 103.753 172.295 116.644 196.958 132.578L191.532 140.977ZM219.766 164.544C213.038 156.837 203.293 148.576 191.532 140.977L196.958 132.578C209.314 140.56 219.826 149.406 227.299 157.969L219.766 164.544ZM229.594 182.45C229.38 178.402 226.421 172.17 219.766 164.544L227.299 157.969C234.344 166.039 239.183 174.419 239.58 181.921L229.594 182.45ZM221.213 480.136C216.859 480.153 212.769 479.808 209.12 479.207L210.745 469.34C213.829 469.848 217.362 470.151 221.174 470.136L221.213 480.136ZM209.12 479.207C206.037 478.7 203.86 475.911 204.115 472.798L214.082 473.613C214.251 471.537 212.8 469.679 210.745 469.34L209.12 479.207ZM204.115 472.798C204.37 469.684 206.971 467.287 210.095 467.287V477.287C212.178 477.287 213.912 475.689 214.082 473.613L204.115 472.798ZM210.095 467.287C214.598 467.287 218.64 467.594 222.236 468.213L220.541 478.068C217.619 477.566 214.158 477.287 210.095 477.287V467.287ZM221.358 468.14C239.957 468.025 263.771 460.242 274.622 433.236L283.901 436.964C271.019 469.024 242.488 478.01 221.42 478.14L221.358 468.14ZM274.622 433.236C278.32 424.032 280.631 412.372 280.631 397.659H290.631C290.631 413.412 288.156 426.374 283.901 436.964L274.622 433.236ZM280.631 397.659C280.631 394.346 283.317 391.659 286.631 391.659V401.659C288.84 401.659 290.631 399.868 290.631 397.659H280.631ZM286.631 391.659C289.944 391.659 292.631 394.346 292.631 397.659H282.631C282.631 399.868 284.421 401.659 286.631 401.659V391.659ZM292.631 397.659C292.631 413.311 290.22 426.327 286.009 437.075L276.698 433.427C280.377 424.037 282.631 412.29 282.631 397.659H292.631ZM284.991 431.82C317.377 466.155 339.02 471.449 355.332 467.168L357.871 476.841C336.198 482.528 310.981 473.948 277.716 438.682L284.991 431.82ZM355.332 467.168C363.906 464.918 371.841 459.852 379.832 453.197L386.232 460.88C377.766 467.932 368.5 474.052 357.871 476.841L355.332 467.168ZM379.832 453.197C385.01 448.884 390.002 444.089 395.152 439.14L402.081 446.35C396.979 451.254 391.73 456.301 386.232 460.88L379.832 453.197ZM395.152 439.14C397.794 436.601 400.477 434.023 403.198 431.504L409.991 438.842C407.35 441.287 404.735 443.8 402.081 446.35L395.152 439.14ZM401.832 436.697C398.634 426.702 396.901 415.845 400.139 407.051L409.523 410.506C407.491 416.024 408.312 424.136 411.357 433.648L401.832 436.697ZM400.139 407.051C401.874 402.338 405.004 398.325 409.748 395.582L414.753 404.24C412.165 405.736 410.505 407.837 409.523 410.506L400.139 407.051ZM409.748 395.582C414.382 392.904 420.163 391.659 426.946 391.659V401.659C421.315 401.659 417.415 402.701 414.753 404.24L409.748 395.582ZM426.946 391.659C430.26 391.659 432.946 394.346 432.946 397.659H422.946C422.946 399.868 424.737 401.659 426.946 401.659V391.659ZM432.946 397.659C432.946 400.973 430.26 403.659 426.946 403.659V393.659C424.737 393.659 422.946 395.45 422.946 397.659H432.946ZM426.946 403.659C421.545 403.659 418.022 404.66 415.754 405.971L410.749 397.314C414.988 394.863 420.393 393.659 426.946 393.659V403.659ZM415.754 405.971C413.597 407.218 412.232 408.937 411.399 411.197L402.015 407.742C403.6 403.438 406.437 399.807 410.749 397.314L415.754 405.971ZM411.399 411.197C409.568 416.172 410.283 423.952 413.445 433.606L403.942 436.718C400.633 426.615 398.958 416.046 402.015 407.742L411.399 411.197ZM413.445 433.606C417.602 446.297 425.248 460.042 431.92 469.931L423.63 475.524C416.653 465.183 408.484 450.588 403.942 436.718L413.445 433.606ZM431.92 469.931C433.594 472.413 433.183 475.75 430.955 477.75L424.273 470.311C422.788 471.645 422.514 473.869 423.63 475.524L431.92 469.931ZM430.955 477.75C425.307 482.824 419.118 489.148 413.883 495.731L406.056 489.507C411.702 482.407 418.294 475.682 424.273 470.311L430.955 477.75ZM413.883 495.731C408.58 502.4 404.579 508.938 402.857 514.461L393.31 511.485C395.573 504.226 400.457 496.549 406.056 489.507L413.883 495.731ZM402.857 514.461C401.161 519.902 401.982 523.028 404.128 525.082L397.213 532.306C391.215 526.564 391.029 518.802 393.31 511.485L402.857 514.461ZM404.128 525.082C406.838 527.676 413.281 530.309 426.946 530.309V540.309C412.67 540.309 402.836 537.688 397.213 532.306L404.128 525.082ZM426.946 530.309H515.227V540.309H426.946V530.309ZM510.227 535.311C510.215 497.417 509.426 442.151 495.195 396.285L504.745 393.322C519.488 440.833 520.215 497.557 520.227 535.307L510.227 535.311ZM495.195 396.285C488.031 373.199 477.6 352.977 462.575 338.572L469.495 331.354C486.184 347.354 497.299 369.323 504.745 393.322L495.195 396.285ZM462.575 338.572C447.699 324.311 427.992 315.426 401.434 315.426V305.426C430.5 305.426 452.706 315.258 469.495 331.354L462.575 338.572ZM401.434 315.426H400.778V305.426H401.434V315.426ZM400.778 315.426H400.127V305.426H400.778V315.426ZM400.127 315.426H399.479V305.426H400.127V315.426ZM399.479 315.426H398.835V305.426H399.479V315.426ZM398.835 315.426H398.196V305.426H398.835V315.426ZM398.196 315.426H397.56V305.426H398.196V315.426ZM397.56 315.426H396.929V305.426H397.56V315.426ZM396.929 315.426H396.301V305.426H396.929V315.426ZM396.301 315.426H395.678V305.426H396.301V315.426ZM395.678 315.426H395.058V305.426H395.678V315.426ZM395.058 315.426H394.442V305.426H395.058V315.426ZM394.442 315.426H393.831V305.426H394.442V315.426ZM393.831 315.426H393.223V305.426H393.831V315.426ZM393.223 315.426H392.619V305.426H393.223V315.426ZM392.619 315.426H392.019V305.426H392.619V315.426ZM392.019 315.426H391.423V305.426H392.019V315.426ZM391.423 315.426H390.831V305.426H391.423V315.426ZM390.831 315.426H390.243V305.426H390.831V315.426ZM390.243 315.426H389.658V305.426H390.243V315.426ZM389.658 315.426H389.077V305.426H389.658V315.426ZM389.077 315.426H388.501V305.426H389.077V315.426ZM388.501 315.426H387.928V305.426H388.501V315.426ZM387.928 315.426H387.359V305.426H387.928V315.426ZM387.359 315.426H386.793V305.426H387.359V315.426ZM386.793 315.426H386.232V305.426H386.793V315.426ZM386.232 315.426H385.674V305.426H386.232V315.426ZM385.674 315.426H385.12V305.426H385.674V315.426ZM385.12 315.426H384.57V305.426H385.12V315.426ZM384.57 315.426H384.023V305.426H384.57V315.426ZM384.023 315.426H383.48V305.426H384.023V315.426ZM383.48 315.426H382.941V305.426H383.48V315.426ZM382.941 315.426H382.406V305.426H382.941V315.426ZM382.406 315.426H381.874V305.426H382.406V315.426ZM381.874 315.426H381.346V305.426H381.874V315.426ZM381.346 315.426H380.822V305.426H381.346V315.426ZM380.822 315.426H380.301V305.426H380.822V315.426ZM380.301 315.426H379.784V305.426H380.301V315.426ZM379.784 315.426H379.271V305.426H379.784V315.426ZM379.271 315.426H378.761V305.426H379.271V315.426ZM378.761 315.426H378.255V305.426H378.761V315.426ZM378.255 315.426H377.753V305.426H378.255V315.426ZM377.753 315.426H377.254V305.426H377.753V315.426ZM377.254 315.426H376.758V305.426H377.254V315.426ZM376.758 315.426H376.267V305.426H376.758V315.426ZM376.267 315.426H375.778V305.426H376.267V315.426ZM375.778 315.426H375.294V305.426H375.778V315.426ZM375.294 315.426H374.813V305.426H375.294V315.426ZM374.813 315.426H374.335V305.426H374.813V315.426ZM374.335 315.426H373.861V305.426H374.335V315.426ZM373.861 315.426H373.39V305.426H373.861V315.426ZM373.39 315.426H372.923V305.426H373.39V315.426ZM372.923 315.426H372.459V305.426H372.923V315.426ZM372.459 315.426H371.999V305.426H372.459V315.426ZM371.999 315.426H371.542V305.426H371.999V315.426ZM371.542 315.426H371.089V305.426H371.542V315.426ZM371.089 315.426H370.639V305.426H371.089V315.426ZM370.639 315.426H370.193V305.426H370.639V315.426ZM370.193 315.426H369.75V305.426H370.193V315.426ZM369.75 315.426H369.31V305.426H369.75V315.426ZM369.31 315.426H368.874V305.426H369.31V315.426ZM368.874 315.426H368.441V305.426H368.874V315.426ZM368.441 315.426H368.011V305.426H368.441V315.426ZM368.011 315.426H367.585V305.426H368.011V315.426ZM367.585 315.426H367.162V305.426H367.585V315.426ZM367.162 315.426H366.743V305.426H367.162V315.426ZM366.743 315.426H366.327V305.426H366.743V315.426ZM366.327 315.426H365.914V305.426H366.327V315.426ZM365.914 315.426H365.504V305.426H365.914V315.426ZM365.504 315.426H365.098V305.426H365.504V315.426ZM365.098 315.426H364.695V305.426H365.098V315.426ZM364.695 315.426H364.295V305.426H364.695V315.426ZM364.295 315.426H363.898V305.426H364.295V315.426ZM363.898 315.426H363.505V305.426H363.898V315.426ZM363.505 315.426H363.115V305.426H363.505V315.426ZM363.115 315.426H362.728V305.426H363.115V315.426ZM362.728 315.426H362.344V305.426H362.728V315.426ZM362.344 315.426H361.963V305.426H362.344V315.426ZM361.963 315.426H361.586V305.426H361.963V315.426ZM361.586 315.426H361.212V305.426H361.586V315.426ZM361.212 315.426H360.841V305.426H361.212V315.426ZM360.841 315.426H360.473V305.426H360.841V315.426ZM360.473 315.426H360.108V305.426H360.473V315.426ZM360.108 315.426H359.746V305.426H360.108V315.426ZM359.746 315.426H359.388V305.426H359.746V315.426ZM359.388 315.426H359.032V305.426H359.388V315.426ZM359.032 315.426H358.68V305.426H359.032V315.426ZM358.68 315.426H358.33V305.426H358.68V315.426ZM358.33 315.426H357.984V305.426H358.33V315.426ZM357.984 315.426H357.641V305.426H357.984V315.426ZM357.641 315.426H357.3V305.426H357.641V315.426ZM357.3 315.426H356.963V305.426H357.3V315.426ZM356.963 315.426H356.629V305.426H356.963V315.426ZM356.629 315.426H356.298V305.426H356.629V315.426ZM356.298 315.426H355.97V305.426H356.298V315.426ZM355.97 315.426H355.644V305.426H355.97V315.426ZM355.644 315.426H355.322V305.426H355.644V315.426ZM355.322 315.426H355.003V305.426H355.322V315.426ZM355.003 315.426H354.686V305.426H355.003V315.426ZM354.686 315.426H354.373V305.426H354.686V315.426ZM354.373 315.426H354.062V305.426H354.373V315.426ZM354.062 315.426H353.755V305.426H354.062V315.426ZM353.755 315.426H353.45V305.426H353.755V315.426ZM353.45 315.426H353.148V305.426H353.45V315.426ZM353.148 315.426H352.849V305.426H353.148V315.426ZM352.849 315.426H352.553V305.426H352.849V315.426ZM352.553 315.426H352.26V305.426H352.553V315.426ZM352.26 315.426H351.969V305.426H352.26V315.426ZM351.969 315.426H351.681V305.426H351.969V315.426ZM351.681 315.426H351.397V305.426H351.681V315.426ZM351.397 315.426H351.115V305.426H351.397V315.426ZM351.115 315.426H350.835V305.426H351.115V315.426ZM350.835 315.426H350.559V305.426H350.835V315.426ZM350.559 315.426H350.285V305.426H350.559V315.426ZM350.285 315.426H350.014V305.426H350.285V315.426ZM350.014 315.426H349.746V305.426H350.014V315.426ZM349.746 315.426H349.481V305.426H349.746V315.426ZM349.481 315.426H349.218V305.426H349.481V315.426ZM349.218 315.426H348.958V305.426H349.218V315.426ZM348.958 315.426H348.7V305.426H348.958V315.426ZM348.7 315.426H348.446V305.426H348.7V315.426ZM348.446 315.426H348.194V305.426H348.446V315.426ZM348.194 315.426H347.944V305.426H348.194V315.426ZM347.944 315.426H347.698V305.426H347.944V315.426ZM347.698 315.426H347.454V305.426H347.698V315.426ZM347.454 315.426H347.212V305.426H347.454V315.426ZM347.212 315.426H346.974V305.426H347.212V315.426ZM346.974 315.426H346.737V305.426H346.974V315.426ZM346.737 315.426H346.504V305.426H346.737V315.426ZM346.504 315.426H346.273V305.426H346.504V315.426ZM346.273 315.426H346.044V305.426H346.273V315.426ZM346.044 315.426H345.818V305.426H346.044V315.426ZM345.818 315.426H345.595V305.426H345.818V315.426ZM345.595 315.426H345.374V305.426H345.595V315.426ZM345.374 315.426H345.156V305.426H345.374V315.426ZM345.156 315.426H344.94V305.426H345.156V315.426ZM344.94 315.426H344.727V305.426H344.94V315.426ZM344.727 315.426H344.516V305.426H344.727V315.426ZM344.516 315.426H344.308V305.426H344.516V315.426ZM344.308 315.426H344.102V305.426H344.308V315.426ZM344.102 315.426H343.898V305.426H344.102V315.426ZM343.898 315.426H343.697V305.426H343.898V315.426ZM343.697 315.426H343.499V305.426H343.697V315.426ZM343.499 315.426H343.302V305.426H343.499V315.426ZM343.302 315.426H343.109V305.426H343.302V315.426ZM343.109 315.426H342.917V305.426H343.109V315.426ZM342.917 315.426H342.728V305.426H342.917V315.426ZM342.728 315.426H342.542V305.426H342.728V315.426ZM342.542 315.426H342.358V305.426H342.542V315.426ZM342.358 315.426H342.176V305.426H342.358V315.426ZM342.176 315.426H341.996V305.426H342.176V315.426ZM341.996 315.426H341.819V305.426H341.996V315.426ZM341.819 315.426H341.644V305.426H341.819V315.426ZM341.644 315.426H341.471V305.426H341.644V315.426ZM341.471 315.426H341.301V305.426H341.471V315.426ZM341.301 315.426H341.133V305.426H341.301V315.426ZM341.133 315.426H340.967V305.426H341.133V315.426ZM340.967 315.426H340.804V305.426H340.967V315.426ZM340.804 315.426H340.677V305.426H340.804V315.426ZM340.677 315.426H340.677V305.426H340.677V315.426ZM340.677 315.426H340.676V305.426H340.677V315.426ZM340.676 315.426H340.675V305.426H340.676V315.426ZM340.675 315.426H340.674V305.426H340.675V315.426ZM340.674 315.426H340.673V305.426H340.674V315.426ZM340.673 315.426H340.671V305.426H340.673V315.426ZM340.671 315.426H340.67V305.426H340.671V315.426ZM340.67 315.426H340.666V305.426H340.67V315.426ZM340.666 315.426H340.665V305.426H340.666V315.426ZM340.665 315.426H340.661V305.426H340.665V315.426ZM340.661 315.426H340.659V305.426H340.661V315.426ZM340.659 315.426H340.654V305.426H340.659V315.426ZM340.654 315.426H340.653V305.426H340.654V315.426ZM340.653 315.426H340.646V305.426H340.653V315.426ZM340.646 315.426H340.645V305.426H340.646V315.426ZM340.645 315.426H340.642V305.426H340.645V315.426ZM340.642 315.426H340.637V305.426H340.642V315.426ZM340.637 315.426H340.636V305.426H340.637V315.426ZM340.636 315.426H340.627V305.426H340.636V315.426ZM340.627 315.426H340.616V305.426H340.627V315.426ZM340.616 315.426H340.615V305.426H340.616V315.426ZM340.615 315.426H340.604V305.426H340.615V315.426ZM340.604 315.426H340.602V305.426H340.604V315.426ZM340.602 315.426H340.591V305.426H340.602V315.426ZM340.591 315.426H340.588V305.426H340.591V315.426ZM340.588 315.426H340.578V305.426H340.588V315.426ZM340.578 315.426H340.573V305.426H340.578V315.426ZM340.573 315.426H340.563V305.426H340.573V315.426ZM340.563 315.426H340.556V305.426H340.563V315.426ZM340.556 315.426H340.548V305.426H340.556V315.426ZM340.548 315.426H340.539V305.426H340.548V315.426ZM340.539 315.426H340.531V305.426H340.539V315.426ZM340.531 315.426H340.519V305.426H340.531V315.426ZM340.519 315.426H340.514V305.426H340.519V315.426ZM340.514 315.426H340.499V305.426H340.514V315.426ZM340.499 315.426H340.495V305.426H340.499V315.426ZM340.495 315.426H340.483V305.426H340.495V315.426ZM340.483 315.426H340.477V305.426H340.483V315.426ZM340.477 315.426H340.476V305.426H340.477V315.426ZM340.476 315.426H340.456V305.426H340.476V315.426ZM340.456 315.426H340.454V305.426H340.456V315.426ZM340.454 315.426H340.435V305.426H340.454V315.426ZM340.435 315.426H340.43V305.426H340.435V315.426ZM340.43 315.426H340.413V305.426H340.43V315.426ZM340.413 315.426H340.404V305.426H340.413V315.426ZM340.404 315.426H340.39V305.426H340.404V315.426ZM340.39 315.426H340.377V305.426H340.39V315.426ZM340.377 315.426H340.367V305.426H340.377V315.426ZM340.367 315.426H340.348V305.426H340.367V315.426ZM340.348 315.426H340.342V305.426H340.348V315.426ZM340.342 315.426H340.326V305.426H340.342V315.426ZM340.326 315.426H340.318V305.426H340.326V315.426ZM340.318 315.426H340.317V305.426H340.318V315.426ZM340.317 315.426H340.291V305.426H340.317V315.426ZM340.291 315.426H340.287V305.426H340.291V315.426ZM340.287 315.426H340.264V305.426H340.287V315.426ZM340.264 315.426H340.254V305.426H340.264V315.426ZM340.254 315.426H340.237V305.426H340.254V315.426ZM340.237 315.426H340.22V305.426H340.237V315.426ZM340.22 315.426H340.208V305.426H340.22V315.426ZM340.208 315.426H340.184V305.426H340.208V315.426ZM340.184 315.426H340.179V305.426H340.184V315.426ZM340.179 315.426H340.172V305.426H340.179V315.426ZM340.172 315.426H340.149V305.426H340.172V315.426ZM340.149 315.426H340.147V305.426H340.149V315.426ZM340.147 315.426H340.119V305.426H340.147V315.426ZM340.119 315.426H340.109V305.426H340.119V315.426ZM340.109 315.426H340.087V305.426H340.109V315.426ZM340.087 315.426H340.069V305.426H340.087V315.426ZM340.069 315.426H340.055V305.426H340.069V315.426ZM340.055 315.426H340.027V305.426H340.055V315.426ZM340.027 315.426H340.022V305.426H340.027V315.426ZM340.022 315.426H340.019V305.426H340.022V315.426ZM340.019 315.426H339.989V305.426H340.019V315.426ZM339.989 315.426H339.985V305.426H339.989V315.426ZM339.985 315.426H339.955V305.426H339.985V315.426ZM339.955 315.426H339.94V305.426H339.955V315.426ZM339.94 315.426H339.92V305.426H339.94V315.426ZM339.92 315.426H339.894V305.426H339.92V315.426ZM339.894 315.426H339.885V305.426H339.894V315.426ZM339.885 315.426H339.869V305.426H339.885V315.426ZM339.869 315.426H339.849V305.426H339.869V315.426ZM339.849 315.426H339.847V305.426H339.849V315.426ZM339.847 315.426H339.812V305.426H339.847V315.426ZM339.812 315.426H339.798V305.426H339.812V315.426ZM339.798 315.426H339.774V305.426H339.798V315.426ZM339.774 315.426H339.747V305.426H339.774V315.426ZM339.747 315.426H339.737V305.426H339.747V315.426ZM339.737 315.426H339.721V305.426H339.737V315.426ZM339.721 315.426H339.698V305.426H339.721V315.426ZM339.698 315.426H339.695V305.426H339.698V315.426ZM339.695 315.426H339.659V305.426H339.695V315.426ZM339.659 315.426H339.641V305.426H339.659V315.426ZM339.641 315.426H339.619V305.426H339.641V315.426ZM339.619 315.426H339.586V305.426H339.619V315.426ZM339.586 315.426H339.579V305.426H339.586V315.426ZM339.579 315.426H339.575V305.426H339.579V315.426ZM339.575 315.426H339.538V305.426H339.575V315.426ZM339.538 315.426H339.529V305.426H339.538V315.426ZM339.529 315.426H339.497V305.426H339.529V315.426ZM339.497 315.426H339.471V305.426H339.497V315.426ZM339.471 315.426H339.455V305.426H339.471V315.426ZM339.455 315.426H339.431V305.426H339.455V315.426ZM339.431 315.426H339.412V305.426H339.431V315.426ZM339.412 315.426H339.41V305.426H339.412V315.426ZM339.41 315.426H339.37V305.426H339.41V315.426ZM339.37 315.426H339.349V305.426H339.37V315.426ZM339.349 315.426H339.326V305.426H339.349V315.426ZM339.326 315.426H339.289V305.426H339.326V315.426ZM339.289 315.426H339.285V305.426H339.289V315.426ZM339.285 315.426H339.282V305.426H339.285V315.426ZM339.282 315.426H339.238V305.426H339.282V315.426ZM339.238 315.426H339.22V305.426H339.238V315.426ZM339.22 315.426H339.193V305.426H339.22V315.426ZM339.193 315.426H339.154V305.426H339.193V315.426ZM339.154 315.426H339.15V305.426H339.154V315.426ZM339.15 315.426H339.148V305.426H339.15V315.426ZM339.148 315.426H339.102V305.426H339.148V315.426ZM339.102 315.426H339.085V305.426H339.102V315.426ZM339.085 315.426H339.056V305.426H339.085V315.426ZM339.056 315.426H339.015V305.426H339.056V315.426ZM339.015 315.426H339.013V305.426H339.015V315.426ZM339.013 315.426H339.01V305.426H339.013V315.426ZM339.01 315.426H338.963V305.426H339.01V315.426ZM338.963 315.426H338.943V305.426H338.963V315.426ZM338.943 315.426H338.915V305.426H338.943V315.426ZM338.915 315.426H338.877V305.426H338.915V315.426ZM338.877 315.426H338.87V305.426H338.877V315.426ZM338.87 315.426H338.868V305.426H338.87V315.426ZM338.868 315.426H338.82V305.426H338.868V315.426ZM338.82 315.426H338.795V305.426H338.82V315.426ZM338.795 315.426H338.771V305.426H338.795V315.426ZM338.771 315.426H338.744V305.426H338.771V315.426ZM338.744 315.426H338.723V305.426H338.744V315.426ZM338.723 315.426H338.718V305.426H338.723V315.426ZM338.718 315.426H338.673V305.426H338.718V315.426ZM338.673 315.426H338.639V305.426H338.673V315.426ZM338.639 315.426H338.624V305.426H338.639V315.426ZM338.624 315.426H338.613V305.426H338.624V315.426ZM338.613 315.426H338.574V305.426H338.613V315.426ZM338.574 315.426H338.558V305.426H338.574V315.426ZM338.558 315.426H338.524V305.426H338.558V315.426ZM338.524 315.426H338.484V305.426H338.524V315.426ZM338.484 315.426H338.476V305.426H338.484V315.426ZM338.476 315.426H338.474V305.426H338.476V315.426ZM338.474 315.426H338.424V305.426H338.474V315.426ZM338.424 315.426H338.392V305.426H338.424V315.426ZM338.392 315.426H338.373V305.426H338.392V315.426ZM338.373 315.426H338.357V305.426H338.373V315.426ZM338.357 315.426H338.322V305.426H338.357V315.426ZM338.322 315.426H338.306V305.426H338.322V315.426ZM338.306 315.426H338.271V305.426H338.306V315.426ZM338.271 315.426H338.232V305.426H338.271V315.426ZM338.232 315.426H338.219V305.426H338.232V315.426ZM338.219 315.426H338.219V305.426H338.219V315.426ZM338.219 315.426H338.167V305.426H338.219V315.426ZM338.167 315.426H338.129V305.426H338.167V315.426ZM338.129 315.426H338.115V305.426H338.129V315.426ZM338.115 315.426H338.109V305.426H338.115V315.426ZM338.109 315.426H338.063V305.426H338.109V315.426ZM338.063 315.426H338.038V305.426H338.063V315.426ZM338.038 315.426H338.011V305.426H338.038V315.426ZM338.011 315.426H337.988V305.426H338.011V315.426ZM337.988 315.426H337.959V305.426H337.988V315.426ZM337.959 315.426H337.945V305.426H337.959V315.426ZM337.945 315.426H337.906V305.426H337.945V315.426ZM337.906 315.426H337.869V305.426H337.906V315.426ZM337.869 315.426H337.853V305.426H337.869V315.426ZM337.853 315.426H337.85V305.426H337.853V315.426ZM337.85 315.426H337.8V305.426H337.85V315.426ZM337.8 315.426H337.753V305.426H337.8V315.426ZM337.753 315.426H337.752V305.426H337.753V315.426ZM337.752 315.426H337.747V305.426H337.752V315.426ZM337.747 315.426H337.694V305.426H337.747V315.426ZM337.694 315.426H337.654V305.426H337.694V315.426ZM337.654 315.426H337.641V305.426H337.654V315.426ZM337.641 315.426H337.637V305.426H337.641V315.426ZM337.637 315.426H337.588V305.426H337.637V315.426ZM337.588 315.426H337.534V305.426H337.588V315.426ZM337.534 315.426H337.524V305.426H337.534V315.426ZM337.524 315.426H337.481V305.426H337.524V315.426ZM337.481 315.426H337.428V305.426H337.481V315.426ZM337.428 315.426H337.413V305.426H337.428V315.426ZM337.413 315.426H337.374V305.426H337.413V315.426ZM337.374 315.426H337.32V305.426H337.374V315.426ZM337.32 315.426H337.304V305.426H337.32V315.426ZM337.304 315.426H337.267V305.426H337.304V315.426ZM337.267 315.426H337.213V305.426H337.267V315.426ZM337.213 315.426H337.197V305.426H337.213V315.426ZM337.197 315.426H337.16V305.426H337.197V315.426ZM337.16 315.426H337.106V305.426H337.16V315.426ZM337.106 315.426H337.092V305.426H337.106V315.426ZM337.092 315.426H337.053V305.426H337.092V315.426ZM337.053 315.426H336.999V305.426H337.053V315.426ZM336.999 315.426H336.989V305.426H336.999V315.426ZM336.989 315.426H336.946V305.426H336.989V315.426ZM336.946 315.426H336.893V305.426H336.946V315.426ZM336.893 315.426H336.887V305.426H336.893V315.426ZM336.887 315.426H336.839V305.426H336.887V315.426ZM336.839 315.426H336.788V305.426H336.839V315.426ZM336.788 315.426H336.786V305.426H336.788V315.426ZM336.786 315.426H336.733V305.426H336.786V315.426ZM336.733 315.426H336.69V305.426H336.733V315.426ZM336.69 315.426H336.68V305.426H336.69V315.426ZM336.68 315.426H336.627V305.426H336.68V315.426ZM336.627 315.426H336.594V305.426H336.627V315.426ZM336.594 315.426H336.575V305.426H336.594V315.426ZM336.575 315.426H336.522V305.426H336.575V315.426ZM336.522 315.426H336.501V305.426H336.522V315.426ZM336.501 315.426H336.47V305.426H336.501V315.426ZM336.47 315.426H336.417V305.426H336.47V315.426ZM336.417 315.426H336.409V305.426H336.417V315.426ZM336.409 315.426H336.365V305.426H336.409V315.426ZM336.365 315.426H336.318V305.426H336.365V315.426ZM336.318 315.426H336.314V305.426H336.318V315.426ZM336.314 315.426H336.262V305.426H336.314V315.426ZM336.262 315.426H336.23V305.426H336.262V315.426ZM336.23 315.426H336.211V305.426H336.23V315.426ZM336.211 315.426H336.159V305.426H336.211V315.426ZM336.159 315.426H336.144V305.426H336.159V315.426ZM336.144 315.426H336.108V305.426H336.144V315.426ZM336.108 315.426H336.059V305.426H336.108V315.426ZM336.059 315.426H336.058V305.426H336.059V315.426ZM336.058 315.426H336.007V305.426H336.058V315.426ZM336.007 315.426H335.976V305.426H336.007V315.426ZM335.976 315.426H335.957V305.426H335.976V315.426ZM335.957 315.426H335.907V305.426H335.957V315.426ZM335.907 315.426H335.895V305.426H335.907V315.426ZM335.895 315.426H335.858V305.426H335.895V315.426ZM335.858 315.426H335.815V305.426H335.858V315.426ZM335.815 315.426H335.809V305.426H335.815V315.426ZM335.809 315.426H335.76V305.426H335.809V315.426ZM335.76 315.426H335.738V305.426H335.76V315.426ZM335.738 315.426H335.711V305.426H335.738V315.426ZM335.711 315.426H335.663V305.426H335.711V315.426ZM335.663 315.426H335.662V305.426H335.663V315.426ZM335.662 315.426H335.615V305.426H335.662V315.426ZM335.615 315.426H335.587V305.426H335.615V315.426ZM335.587 315.426H335.567V305.426H335.587V315.426ZM335.567 315.426H335.52V305.426H335.567V315.426ZM335.52 315.426H335.515V305.426H335.52V315.426ZM335.515 315.426H335.473V305.426H335.515V315.426ZM335.473 315.426H335.444V305.426H335.473V315.426ZM335.444 315.426H335.427V305.426H335.444V315.426ZM335.427 315.426H335.381V305.426H335.427V315.426ZM335.381 315.426H335.375V305.426H335.381V315.426ZM335.375 315.426H335.336V305.426H335.375V315.426ZM335.336 315.426H335.308V305.426H335.336V315.426ZM335.308 315.426H335.291V305.426H335.308V315.426ZM335.291 315.426H335.246V305.426H335.291V315.426ZM335.246 315.426H335.242V305.426H335.246V315.426ZM335.242 315.426H335.202V305.426H335.242V315.426ZM335.202 315.426H335.178V305.426H335.202V315.426ZM335.178 315.426H335.158V305.426H335.178V315.426ZM335.158 315.426H335.116V305.426H335.158V315.426ZM335.116 315.426H335.115V305.426H335.116V315.426ZM335.115 315.426H335.072V305.426H335.115V315.426ZM335.072 315.426H335.055V305.426H335.072V315.426ZM335.055 315.426H335.03V305.426H335.055V315.426ZM335.03 315.426H334.996V305.426H335.03V315.426ZM334.996 315.426H334.988V305.426H334.996V315.426ZM334.988 315.426H334.947V305.426H334.988V315.426ZM334.947 315.426H334.938V305.426H334.947V315.426ZM334.938 315.426H334.907V305.426H334.938V315.426ZM334.907 315.426H334.882V305.426H334.907V315.426ZM334.882 315.426H334.867V305.426H334.882V315.426ZM334.867 315.426H334.828V305.426H334.867V315.426ZM334.828 315.426H334.827V305.426H334.828V315.426ZM334.827 315.426H334.788V305.426H334.827V315.426ZM334.788 315.426H334.775V305.426H334.788V315.426ZM334.775 315.426H334.75V305.426H334.775V315.426ZM334.75 315.426H334.724V305.426H334.75V315.426ZM334.724 315.426H334.712V305.426H334.724V315.426ZM334.712 315.426H334.675V305.426H334.712V315.426ZM334.675 315.426H334.674V305.426H334.675V315.426ZM334.674 315.426H334.639V305.426H334.674V315.426ZM334.639 315.426H334.626V305.426H334.639V315.426ZM334.626 315.426H334.603V305.426H334.626V315.426ZM334.603 315.426H334.58V305.426H334.603V315.426ZM334.58 315.426H334.568V305.426H334.58V315.426ZM334.568 315.426H334.535V305.426H334.568V315.426ZM334.535 315.426H334.533V305.426H334.535V315.426ZM334.533 315.426H334.499V305.426H334.533V315.426ZM334.499 315.426H334.491V305.426H334.499V315.426ZM334.491 315.426H334.466V305.426H334.491V315.426ZM334.466 315.426H334.449V305.426H334.466V315.426ZM334.449 315.426H334.434V305.426H334.449V315.426ZM334.434 315.426H334.408V305.426H334.434V315.426ZM334.408 315.426H334.402V305.426H334.408V315.426ZM334.402 315.426H334.371V305.426H334.402V315.426ZM334.371 315.426H334.369V305.426H334.371V315.426ZM334.369 315.426H334.34V305.426H334.369V315.426ZM334.34 315.426H334.332V305.426H334.34V315.426ZM334.332 315.426H334.311V305.426H334.332V315.426ZM334.311 315.426H334.296V305.426H334.311V315.426ZM334.296 315.426H334.282V305.426H334.296V315.426ZM334.282 315.426H334.261V305.426H334.282V315.426ZM334.261 315.426H334.254V305.426H334.261V315.426ZM334.254 315.426H334.228V305.426H334.254V315.426ZM334.228 315.426H334.227V305.426H334.228V315.426ZM334.227 315.426H334.2V305.426H334.227V315.426ZM334.2 315.426H334.196V305.426H334.2V315.426ZM334.196 315.426H334.174V305.426H334.196V315.426ZM334.174 315.426H334.165V305.426H334.174V315.426ZM334.165 315.426H334.15V305.426H334.165V315.426ZM334.15 315.426H334.136V305.426H334.15V315.426ZM334.136 315.426H334.125V305.426H334.136V315.426ZM334.125 315.426H334.108V305.426H334.125V315.426ZM334.108 315.426H334.102V305.426H334.108V315.426ZM334.102 315.426H334.082V305.426H334.102V315.426ZM334.082 315.426H334.08V305.426H334.082V315.426ZM334.08 315.426H334.058V305.426H334.08V315.426ZM334.058 315.426H334.057V305.426H334.058V315.426ZM334.057 315.426H334.038V305.426H334.057V315.426ZM334.038 315.426H334.033V305.426H334.038V315.426ZM334.033 315.426H334.018V305.426H334.033V315.426ZM334.018 315.426H334.011V305.426H334.018V315.426ZM334.011 315.426H333.999V305.426H334.011V315.426ZM333.999 315.426H333.99V305.426H333.999V315.426ZM333.99 315.426H333.981V305.426H333.99V315.426ZM333.981 315.426H333.971V305.426H333.981V315.426ZM333.971 315.426H333.964V305.426H333.971V315.426ZM333.964 315.426H333.952V305.426H333.964V315.426ZM333.952 315.426H333.948V305.426H333.952V315.426ZM333.948 315.426H333.935V305.426H333.948V315.426ZM333.935 315.426H333.933V305.426H333.935V315.426ZM333.933 315.426H333.919V305.426H333.933V315.426ZM333.919 315.426H333.918V305.426H333.919V315.426ZM333.918 315.426H333.905V305.426H333.918V315.426ZM333.905 315.426H333.905V305.426H333.905V315.426ZM333.905 315.426H333.893V305.426H333.905V315.426ZM333.893 315.426H333.891V305.426H333.893V315.426ZM333.891 315.426H333.881V305.426H333.891V315.426ZM333.881 315.426H333.879V305.426H333.881V315.426ZM333.879 315.426H333.871V305.426H333.879V315.426ZM333.871 315.426H333.869V305.426H333.871V315.426ZM333.869 315.426H333.862V305.426H333.869V315.426ZM333.862 315.426H333.859V305.426H333.862V315.426ZM333.859 315.426H333.853V305.426H333.859V315.426ZM333.853 315.426H333.851V305.426H333.853V315.426ZM333.851 315.426H333.846V305.426H333.851V315.426ZM333.846 315.426H333.843V305.426H333.846V315.426ZM333.843 315.426H333.84V305.426H333.843V315.426ZM333.84 315.426H333.837V305.426H333.84V315.426ZM333.837 315.426H333.835V305.426H333.837V315.426ZM333.835 315.426H333.833V305.426H333.835V315.426ZM333.833 315.426H333.831V305.426H333.833V315.426ZM333.831 315.426H333.829V305.426H333.831V315.426ZM333.829 315.426H333.827V305.426H333.829V315.426ZM333.827 315.426H333.826V305.426H333.827V315.426ZM333.826 315.426H333.826V305.426H333.826V315.426ZM333.826 315.426H333.825V305.426H333.826V315.426ZM333.825 315.426H333.825V305.426H333.825V315.426ZM328.825 310.426C328.825 310.079 328.825 309.731 328.825 309.426H338.825C338.825 309.731 338.825 310.078 338.825 310.426L328.825 310.426ZM328.825 309.426C328.825 309.121 328.825 308.773 328.825 308.426L338.825 308.426C338.825 308.773 338.825 309.121 338.825 309.426H328.825ZM333.825 303.426H333.825V313.426H333.825V303.426ZM333.825 303.426H333.826V313.426H333.825V303.426ZM333.826 303.426H333.826V313.426H333.826V303.426ZM333.826 303.426H333.827V313.426H333.826V303.426ZM333.827 303.426H333.829V313.426H333.827V303.426ZM333.829 303.426H333.831V313.426H333.829V303.426ZM333.831 303.426H333.833V313.426H333.831V303.426ZM333.833 303.426H333.835V313.426H333.833V303.426ZM333.835 303.426H333.837V313.426H333.835V303.426ZM333.837 303.426H333.84V313.426H333.837V303.426ZM333.84 303.426H333.843V313.426H333.84V303.426ZM333.843 303.426H333.846V313.426H333.843V303.426ZM333.846 303.426H333.851V313.426H333.846V303.426ZM333.851 303.426H333.853V313.426H333.851V303.426ZM333.853 303.426H333.859V313.426H333.853V303.426ZM333.859 303.426H333.862V313.426H333.859V303.426ZM333.862 303.426H333.869V313.426H333.862V303.426ZM333.869 303.426H333.871V313.426H333.869V303.426ZM333.871 303.426H333.879V313.426H333.871V303.426ZM333.879 303.426H333.881V313.426H333.879V303.426ZM333.881 303.426H333.891V313.426H333.881V303.426ZM333.891 303.426H333.893V313.426H333.891V303.426ZM333.893 303.426H333.905V313.426H333.893V303.426ZM333.905 303.426H333.905V313.426H333.905V303.426ZM333.905 303.426H333.918V313.426H333.905V303.426ZM333.918 303.426H333.919V313.426H333.918V303.426ZM333.919 303.426H333.933V313.426H333.919V303.426ZM333.933 303.426H333.935V313.426H333.933V303.426ZM333.935 303.426H333.948V313.426H333.935V303.426ZM333.948 303.426H333.952V313.426H333.948V303.426ZM333.952 303.426H333.964V313.426H333.952V303.426ZM333.964 303.426H333.971V313.426H333.964V303.426ZM333.971 303.426H333.981V313.426H333.971V303.426ZM333.981 303.426H333.99V313.426H333.981V303.426ZM333.99 303.426H333.999V313.426H333.99V303.426ZM333.999 303.426H334.011V313.426H333.999V303.426ZM334.011 303.426H334.018V313.426H334.011V303.426ZM334.018 303.426H334.033V313.426H334.018V303.426ZM334.033 303.426H334.038V313.426H334.033V303.426ZM334.038 303.426H334.057V313.426H334.038V303.426ZM334.057 303.426H334.058V313.426H334.057V303.426ZM334.058 303.426H334.08V313.426H334.058V303.426ZM334.08 303.426H334.082V313.426H334.08V303.426ZM334.082 303.426H334.102V313.426H334.082V303.426ZM334.102 303.426H334.108V313.426H334.102V303.426ZM334.108 303.426H334.125V313.426H334.108V303.426ZM334.125 303.426H334.136V313.426H334.125V303.426ZM334.136 303.426H334.15V313.426H334.136V303.426ZM334.15 303.426H334.165V313.426H334.15V303.426ZM334.165 303.426H334.174V313.426H334.165V303.426ZM334.174 303.426H334.196V313.426H334.174V303.426ZM334.196 303.426H334.2V313.426H334.196V303.426ZM334.2 303.426H334.227V313.426H334.2V303.426ZM334.227 303.426H334.228V313.426H334.227V303.426ZM334.228 303.426H334.254V313.426H334.228V303.426ZM334.254 303.426H334.261V313.426H334.254V303.426ZM334.261 303.426H334.282V313.426H334.261V303.426ZM334.282 303.426H334.296V313.426H334.282V303.426ZM334.296 303.426H334.311V313.426H334.296V303.426ZM334.311 303.426H334.332V313.426H334.311V303.426ZM334.332 303.426H334.34V313.426H334.332V303.426ZM334.34 303.426H334.369V313.426H334.34V303.426ZM334.369 303.426H334.371V313.426H334.369V303.426ZM334.371 303.426H334.402V313.426H334.371V303.426ZM334.402 303.426H334.408V313.426H334.402V303.426ZM334.408 303.426H334.434V313.426H334.408V303.426ZM334.434 303.426H334.449V313.426H334.434V303.426ZM334.449 303.426H334.466V313.426H334.449V303.426ZM334.466 303.426H334.491V313.426H334.466V303.426ZM334.491 303.426H334.499V313.426H334.491V303.426ZM334.499 303.426H334.533V313.426H334.499V303.426ZM334.533 303.426H334.535V313.426H334.533V303.426ZM334.535 303.426H334.568V313.426H334.535V303.426ZM334.568 303.426H334.58V313.426H334.568V303.426ZM334.58 303.426H334.603V313.426H334.58V303.426ZM334.603 303.426H334.626V313.426H334.603V303.426ZM334.626 303.426H334.639V313.426H334.626V303.426ZM334.639 303.426H334.674V313.426H334.639V303.426ZM334.674 303.426H334.675V313.426H334.674V303.426ZM334.675 303.426H334.712V313.426H334.675V303.426ZM334.712 303.426H334.724V313.426H334.712V303.426ZM334.724 303.426H334.75V313.426H334.724V303.426ZM334.75 303.426H334.775V313.426H334.75V303.426ZM334.775 303.426H334.788V313.426H334.775V303.426ZM334.788 303.426H334.827V313.426H334.788V303.426ZM334.827 303.426H334.828V313.426H334.827V303.426ZM334.828 303.426H334.867V313.426H334.828V303.426ZM334.867 303.426H334.882V313.426H334.867V303.426ZM334.882 303.426H334.907V313.426H334.882V303.426ZM334.907 303.426H334.938V313.426H334.907V303.426ZM334.938 303.426H334.947V313.426H334.938V303.426ZM334.947 303.426H334.988V313.426H334.947V303.426ZM334.988 303.426H334.996V313.426H334.988V303.426ZM334.996 303.426H335.03V313.426H334.996V303.426ZM335.03 303.426H335.055V313.426H335.03V303.426ZM335.055 303.426H335.072V313.426H335.055V303.426ZM335.072 303.426H335.115V313.426H335.072V303.426ZM335.115 303.426H335.116V313.426H335.115V303.426ZM335.116 303.426H335.158V313.426H335.116V303.426ZM335.158 303.426H335.178V313.426H335.158V303.426ZM335.178 303.426H335.202V313.426H335.178V303.426ZM335.202 303.426H335.242V313.426H335.202V303.426ZM335.242 303.426H335.246V313.426H335.242V303.426ZM335.246 303.426H335.291V313.426H335.246V303.426ZM335.291 303.426H335.308V313.426H335.291V303.426ZM335.308 303.426H335.336V313.426H335.308V303.426ZM335.336 303.426H335.375V313.426H335.336V303.426ZM335.375 303.426H335.381V313.426H335.375V303.426ZM335.381 303.426H335.427V313.426H335.381V303.426ZM335.427 303.426H335.444V313.426H335.427V303.426ZM335.444 303.426H335.473V313.426H335.444V303.426ZM335.473 303.426H335.515V313.426H335.473V303.426ZM335.515 303.426H335.52V313.426H335.515V303.426ZM335.52 303.426H335.567V313.426H335.52V303.426ZM335.567 303.426H335.587V313.426H335.567V303.426ZM335.587 303.426H335.615V313.426H335.587V303.426ZM335.615 303.426H335.662V313.426H335.615V303.426ZM335.662 303.426H335.663V313.426H335.662V303.426ZM335.663 303.426H335.711V313.426H335.663V303.426ZM335.711 303.426H335.738V313.426H335.711V303.426ZM335.738 303.426H335.76V313.426H335.738V303.426ZM335.76 303.426H335.809V313.426H335.76V303.426ZM335.809 303.426H335.815V313.426H335.809V303.426ZM335.815 303.426H335.858V313.426H335.815V303.426ZM335.858 303.426H335.895V313.426H335.858V303.426ZM335.895 303.426H335.907V313.426H335.895V303.426ZM335.907 303.426H335.957V313.426H335.907V303.426ZM335.957 303.426H335.976V313.426H335.957V303.426ZM335.976 303.426H336.007V313.426H335.976V303.426ZM336.007 303.426H336.058V313.426H336.007V303.426ZM336.058 303.426H336.059V313.426H336.058V303.426ZM336.059 303.426H336.108V313.426H336.059V303.426ZM336.108 303.426H336.144V313.426H336.108V303.426ZM336.144 303.426H336.159V313.426H336.144V303.426ZM336.159 303.426H336.211V313.426H336.159V303.426ZM336.211 303.426H336.23V313.426H336.211V303.426ZM336.23 303.426H336.262V313.426H336.23V303.426ZM336.262 303.426H336.298V313.426H336.262V303.426ZM331.524 309.912C322.058 279.504 307.971 245.748 291.095 221.236L299.332 215.565C317.005 241.236 331.455 276.05 341.072 306.94L331.524 309.912ZM291.095 221.236C282.527 208.791 273.493 199.104 264.315 193.332L269.638 184.867C280.429 191.652 290.378 202.56 299.332 215.565L291.095 221.236ZM264.315 193.332C255.285 187.654 246.376 185.893 237.361 188.649L234.437 179.087C246.842 175.293 258.748 178.019 269.638 184.867L264.315 193.332ZM237.361 188.649C227.02 191.812 215.274 201.304 202.758 221.074L194.309 215.724C207.395 195.054 220.801 183.256 234.437 179.087L237.361 188.649ZM202.758 221.074C190.297 240.755 177.511 269.942 164.805 311.192L155.248 308.249C168.085 266.571 181.185 236.454 194.309 215.724L202.758 221.074ZM164.805 311.192C160.693 324.543 156.931 337.099 153.519 348.907L143.912 346.13C147.343 334.256 151.122 321.644 155.248 308.249L164.805 311.192ZM153.519 348.907C147.71 369.006 142.358 386.959 137.58 402.984L127.997 400.127C132.775 384.1 138.116 366.184 143.912 346.13L153.519 348.907ZM137.58 402.984C130.826 425.639 125.239 444.381 121.104 459.973L111.438 457.409C115.621 441.638 121.258 422.73 127.997 400.127L137.58 402.984ZM121.104 459.973C117.571 473.293 115.157 484.1 113.983 492.91L104.071 491.589C105.329 482.149 107.871 470.86 111.438 457.409L121.104 459.973ZM113.983 492.91C112.803 501.773 112.945 508.159 114.17 512.833L104.497 515.369C102.794 508.87 102.818 500.993 104.071 491.589L113.983 492.91ZM114.17 512.833C115.332 517.263 117.485 520.261 120.871 522.545L115.28 530.835C109.779 527.125 106.243 522.03 104.497 515.369L114.17 512.833ZM120.871 522.545C124.478 524.977 129.814 526.815 137.648 528.059L136.081 537.935C127.627 536.593 120.635 534.447 115.28 530.835L120.871 522.545ZM137.648 528.059C151.999 530.336 172.557 530.336 201.357 530.313L201.364 540.313C172.947 540.335 151.411 540.368 136.081 537.935L137.648 528.059ZM201.357 530.313C204.063 530.311 206.838 530.309 209.683 530.309L209.684 540.309C206.843 540.309 204.071 540.311 201.365 540.313L201.357 530.313ZM206.159 531.762C211.208 526.746 216.709 520.542 221.377 514.084L229.481 519.943C224.44 526.916 218.568 533.53 213.208 538.856L206.159 531.762ZM221.377 514.084C226.187 507.43 229.846 500.87 231.429 495.284L241.05 498.011C239.005 505.228 234.579 512.891 229.481 519.943L221.377 514.084ZM231.429 495.284C233.013 489.692 232.224 486.38 230.26 484.312L237.511 477.425C242.955 483.157 243.094 490.796 241.05 498.011L231.429 495.284ZM230.26 484.312C228.764 482.737 225.851 481.029 220.331 480.061L222.057 470.211C228.813 471.395 234.026 473.756 237.511 477.425L230.26 484.312Z" fill="white"/>
</svg>
